<?xml version="1.0" encoding="UTF-8" standalone="no"?>
<!DOCTYPE svg PUBLIC "-//W3C//DTD SVG 1.1//EN" "http://www.w3.org/Graphics/SVG/1.1/DTD/svg11.dtd">
<svg width="100%" height="100%" viewBox="0 0 270 70" version="1.1" xmlns="http://www.w3.org/2000/svg" xmlns:xlink="http://www.w3.org/1999/xlink" xml:space="preserve" xmlns:serif="http://www.serif.com/" style="fill-rule:evenodd;clip-rule:evenodd;stroke-linejoin:round;stroke-miterlimit:2;">
    <g id="Layer_2" transform="matrix(1,0,0,1,1.12,-7.52)">
        <g transform="matrix(1.09526,0,0,1,-5.31362,-0.539251)">
            <rect x="0" y="0" width="267.76" height="85.04" style="fill:rgb(29,29,27);"/>
        </g>
        <g transform="matrix(1.09526,0,0,1,-16.9236,-0.599298)">
            <rect x="0" y="0" width="267.76" height="85.04" style="fill:rgb(29,29,27);"/>
        </g>
        <g transform="matrix(1,0,0,1,15.1291,0.105432)">
            <path d="M245.35,27.61C244.222,25.982 242.711,24.657 240.95,23.75C239.351,22.85 237.554,22.358 235.72,22.32C234.834,22.318 233.949,22.405 233.08,22.58C232.215,22.739 231.393,23.08 230.67,23.58C229.943,24.084 229.33,24.735 228.87,25.49C228.352,26.402 228.099,27.442 228.14,28.49C228.107,29.395 228.307,30.294 228.72,31.1C229.133,31.828 229.708,32.45 230.4,32.92C231.217,33.476 232.088,33.948 233,34.33C234,34.76 235.17,35.21 236.44,35.67C238.28,36.337 240.193,37.103 242.18,37.97C244.15,38.799 245.981,39.926 247.61,41.31C249.265,42.754 250.624,44.507 251.61,46.47C252.756,48.86 253.308,51.491 253.22,54.14C253.293,57.277 252.707,60.394 251.5,63.29C250.484,65.717 248.947,67.891 247,69.66C245.058,71.34 242.796,72.609 240.35,73.39C237.853,74.198 235.244,74.606 232.62,74.6C228.757,74.604 224.933,73.825 221.38,72.31C217.906,70.866 214.822,68.621 212.38,65.76L220.95,55.87C222.337,57.78 224.126,59.364 226.19,60.51C228.138,61.697 230.369,62.343 232.65,62.38C233.604,62.38 234.555,62.263 235.48,62.03C236.352,61.82 237.171,61.436 237.89,60.9C238.6,60.353 239.163,59.638 239.53,58.82C239.966,57.839 240.178,56.773 240.15,55.7C240.189,54.647 239.922,53.604 239.38,52.7C238.805,51.828 238.064,51.077 237.2,50.49C236.102,49.748 234.921,49.137 233.68,48.67C232.28,48.123 230.687,47.53 228.9,46.89C227.158,46.256 225.46,45.504 223.82,44.64C222.167,43.778 220.667,42.649 219.38,41.3C218.03,39.867 216.964,38.191 216.24,36.36C215.381,34.121 214.96,31.738 215,29.34C214.917,26.317 215.544,23.317 216.83,20.58C217.974,18.249 219.62,16.2 221.65,14.58C223.65,13.014 225.936,11.852 228.38,11.16C230.856,10.44 233.422,10.08 236,10.09C239.196,10.13 242.356,10.778 245.31,12C248.476,13.255 251.335,15.179 253.69,17.64L245.35,27.61Z" style="fill:white;fill-rule:nonzero;"/>
        </g>
        <g transform="matrix(1,0,0,1,-20,0)">
            <path d="M126.8,73L126.8,28L116.7,36.8L110.05,26.48L127.86,11.65L139.57,11.65L139.57,73L126.8,73Z" style="fill:white;fill-rule:nonzero;"/>
        </g>
        <g transform="matrix(1,0,0,1,-20,0)">
            <path d="M174.89,61.51C174.744,61.513 174.598,61.515 174.452,61.515C163.936,61.515 155.282,52.861 155.282,42.345C155.282,31.829 163.936,23.175 174.452,23.175C174.598,23.175 174.744,23.177 174.89,23.18L174.89,10.63C157.489,10.63 143.17,24.949 143.17,42.35C143.17,59.751 157.489,74.07 174.89,74.07L174.89,61.51Z" style="fill:white;fill-rule:nonzero;"/>
        </g>
        <g transform="matrix(-1,-1.22465e-16,1.22465e-16,-1,329.079,84.67)">
            <path d="M174.89,61.51C174.744,61.513 174.598,61.515 174.452,61.515C163.936,61.515 155.282,52.861 155.282,42.345C155.282,31.829 163.936,23.175 174.452,23.175C174.598,23.175 174.744,23.177 174.89,23.18L174.89,10.63C157.489,10.63 143.17,24.949 143.17,42.35C143.17,59.751 157.489,74.07 174.89,74.07L174.89,61.51Z" style="fill:white;fill-rule:nonzero;"/>
        </g>
        <g transform="matrix(1,0,0,1,15.1291,0.105432)">
            <path d="M180.56,42.33L190.35,72.46C187.194,73.51 183.886,74.031 180.56,74L180.56,42.33Z" style="fill:white;fill-rule:nonzero;"/>
        </g>
        <g transform="matrix(1,0,0,1,15.1291,0.105432)">
            <path d="M180.56,42.33L206.19,61C202.329,66.482 196.756,70.531 190.35,72.51L180.56,42.33Z" style="fill:rgb(198,198,198);fill-rule:nonzero;"/>
        </g>
        <g transform="matrix(1,0,0,1,15.1291,0.105432)">
            <path d="M180.56,42.33L209.28,55.72C208.429,57.579 207.394,59.348 206.19,61L180.56,42.33Z" style="fill:rgb(135,135,135);fill-rule:nonzero;"/>
        </g>
        <g transform="matrix(1,0,0,1,15.1291,0.105432)">
            <path d="M180.56,42.33L210.69,32.54C213.313,40.145 212.805,48.489 209.28,55.72L180.56,42.33Z" style="fill:rgb(198,198,198);fill-rule:nonzero;"/>
        </g>
        <g transform="matrix(1,0,0,1,15.1291,0.105432)">
            <path d="M180.56,42.33L180.56,10.65C194.297,10.489 206.598,19.425 210.69,32.54L180.56,42.33Z" style="fill:white;fill-rule:nonzero;"/>
        </g>
        <g transform="matrix(1,0,0,1,-12,0)">
            <path d="M43.05,23.17C42.7,23.83 42.41,24.17 42.45,24.71C42.49,25.25 43.03,25.59 43.28,26.1C43.52,25.5 43.9,25.1 43.85,24.59C43.8,24.08 43.16,23.51 43.05,23.17" style="fill:white;fill-rule:nonzero;"/>
        </g>
        <g transform="matrix(1,0,0,1,-12,0)">
            <path d="M51.89,23.17C52.23,23.83 52.53,24.17 52.48,24.71C52.43,25.25 51.9,25.59 51.65,26.1C51.42,25.5 51.04,25.1 51.08,24.59C51.12,24.08 51.77,23.51 51.89,23.17" style="fill:white;fill-rule:nonzero;"/>
        </g>
        <g transform="matrix(1,0,0,1,-12,0)">
            <path d="M38,22.79C38.329,22.79 38.6,22.519 38.6,22.19C38.6,21.861 38.329,21.59 38,21.59C37.671,21.59 37.4,21.861 37.4,22.19C37.4,22.519 37.671,22.79 38,22.79" style="fill:white;fill-rule:nonzero;"/>
        </g>
        <g transform="matrix(1,0,0,1,-12,0)">
            <path d="M38.36,23.64C38.36,23.311 38.089,23.04 37.76,23.04C37.431,23.04 37.16,23.311 37.16,23.64C37.16,23.969 37.431,24.24 37.76,24.24C38.089,24.24 38.36,23.969 38.36,23.64" style="fill:white;fill-rule:nonzero;"/>
        </g>
        <g transform="matrix(1,0,0,1,-12,0)">
            <path d="M38.65,25.09C38.653,25.064 38.655,25.039 38.655,25.013C38.655,24.684 38.384,24.413 38.055,24.413C37.726,24.413 37.455,24.684 37.455,25.013C37.455,25.039 37.457,25.064 37.46,25.09C37.499,25.388 37.755,25.613 38.055,25.613C38.355,25.613 38.611,25.388 38.65,25.09" style="fill:white;fill-rule:nonzero;"/>
        </g>
        <g transform="matrix(1,0,0,1,-12,0)">
            <path d="M41.27,19.94C41.27,19.94 41.27,19.94 41.27,19.94C41.594,19.94 41.86,19.674 41.86,19.35C41.86,19.347 41.86,19.343 41.86,19.34C41.863,19.314 41.865,19.289 41.865,19.263C41.865,18.934 41.594,18.663 41.265,18.663C40.936,18.663 40.665,18.934 40.665,19.263C40.665,19.289 40.667,19.314 40.67,19.34C40.67,19.343 40.67,19.347 40.67,19.35C40.67,19.674 40.936,19.94 41.26,19.94C41.263,19.94 41.267,19.94 41.27,19.94" style="fill:white;fill-rule:nonzero;"/>
        </g>
        <g transform="matrix(1,0,0,1,-12,0)">
            <path d="M39.78,20.4C40.109,20.4 40.38,20.129 40.38,19.8C40.38,19.471 40.109,19.2 39.78,19.2C39.451,19.2 39.18,19.471 39.18,19.8C39.18,20.129 39.451,20.4 39.78,20.4" style="fill:white;fill-rule:nonzero;"/>
        </g>
        <g transform="matrix(1,0,0,1,-12,0)">
            <path d="M38.61,21.42C38.613,21.42 38.617,21.42 38.62,21.42C38.949,21.42 39.22,21.149 39.22,20.82C39.22,20.491 38.949,20.22 38.62,20.22C38.291,20.22 38.02,20.491 38.02,20.82C38.02,21.145 38.285,21.415 38.61,21.42" style="fill:white;fill-rule:nonzero;"/>
        </g>
        <g transform="matrix(1,0,0,1,-12,0)">
            <path d="M42.82,20.08C42.823,20.08 42.827,20.08 42.83,20.08C43.159,20.08 43.43,19.809 43.43,19.48C43.43,19.151 43.159,18.88 42.83,18.88C42.501,18.88 42.23,19.151 42.23,19.48C42.23,19.805 42.495,20.075 42.82,20.08" style="fill:white;fill-rule:nonzero;"/>
        </g>
        <g transform="matrix(1,0,0,1,-12,0)">
            <path d="M44.31,20.51C44.635,20.505 44.9,20.235 44.9,19.91C44.9,19.581 44.629,19.31 44.3,19.31C43.971,19.31 43.7,19.581 43.7,19.91C43.7,20.239 43.971,20.51 44.3,20.51C44.303,20.51 44.307,20.51 44.31,20.51" style="fill:white;fill-rule:nonzero;"/>
        </g>
        <g transform="matrix(1,0,0,1,-12,0)">
            <path d="M45.7,21.16C46.029,21.16 46.3,20.889 46.3,20.56C46.3,20.231 46.029,19.96 45.7,19.96C45.371,19.96 45.1,20.231 45.1,20.56C45.1,20.563 45.1,20.567 45.1,20.57C45.105,20.895 45.375,21.16 45.7,21.16" style="fill:white;fill-rule:nonzero;"/>
        </g>
        <g transform="matrix(1,0,0,1,-12,0)">
            <path d="M56.36,22.19C56.36,22.519 56.631,22.79 56.96,22.79C57.289,22.79 57.56,22.519 57.56,22.19C57.56,21.861 57.289,21.59 56.96,21.59L56.95,21.59C56.626,21.59 56.36,21.856 56.36,22.18C56.36,22.183 56.36,22.187 56.36,22.19" style="fill:white;fill-rule:nonzero;"/>
        </g>
        <g transform="matrix(1,0,0,1,-12,0)">
            <path d="M57.15,23C56.825,23.005 56.56,23.275 56.56,23.6C56.56,23.929 56.831,24.2 57.16,24.2C57.489,24.2 57.76,23.929 57.76,23.6C57.76,23.6 57.76,23.6 57.76,23.6C57.76,23.271 57.489,23 57.16,23C57.157,23 57.153,23 57.15,23" style="fill:white;fill-rule:nonzero;"/>
        </g>
        <g transform="matrix(1,0,0,1,-12,0)">
            <path d="M56.86,24.49C56.562,24.529 56.337,24.785 56.337,25.085C56.337,25.385 56.562,25.641 56.86,25.68C56.886,25.683 56.911,25.685 56.937,25.685C57.266,25.685 57.537,25.414 57.537,25.085C57.537,24.756 57.266,24.485 56.937,24.485C56.911,24.485 56.886,24.487 56.86,24.49" style="fill:white;fill-rule:nonzero;"/>
        </g>
        <g transform="matrix(1,0,0,1,-12,0)">
            <path d="M53.65,19.94C53.979,19.94 54.25,19.669 54.25,19.34C54.25,19.011 53.979,18.74 53.65,18.74C53.321,18.74 53.05,19.011 53.05,19.34C53.05,19.669 53.321,19.94 53.65,19.94" style="fill:white;fill-rule:nonzero;"/>
        </g>
        <g transform="matrix(1,0,0,1,-12,0)">
            <path d="M55.13,20.4C55.459,20.4 55.73,20.129 55.73,19.8C55.73,19.471 55.459,19.2 55.13,19.2C54.801,19.2 54.53,19.471 54.53,19.8C54.53,20.129 54.801,20.4 55.13,20.4" style="fill:white;fill-rule:nonzero;"/>
        </g>
        <g transform="matrix(1,0,0,1,-12,0)">
            <path d="M56.3,21.42C56.303,21.42 56.307,21.42 56.31,21.42C56.639,21.42 56.91,21.149 56.91,20.82C56.91,20.491 56.639,20.22 56.31,20.22C55.981,20.22 55.71,20.491 55.71,20.82C55.71,21.145 55.975,21.415 56.3,21.42" style="fill:white;fill-rule:nonzero;"/>
        </g>
        <g transform="matrix(1,0,0,1,-12,0)">
            <path d="M52.09,20.08C52.419,20.08 52.69,19.809 52.69,19.48C52.69,19.151 52.419,18.88 52.09,18.88C51.761,18.88 51.49,19.151 51.49,19.48C51.49,19.809 51.761,20.08 52.09,20.08" style="fill:white;fill-rule:nonzero;"/>
        </g>
        <g transform="matrix(1,0,0,1,-12,0)">
            <path d="M50.61,20.51C50.939,20.51 51.21,20.239 51.21,19.91C51.21,19.581 50.939,19.31 50.61,19.31C50.281,19.31 50.01,19.581 50.01,19.91C50.01,20.239 50.281,20.51 50.61,20.51" style="fill:white;fill-rule:nonzero;"/>
        </g>
        <g transform="matrix(1,0,0,1,-12,0)">
            <path d="M48.62,20.56C48.617,20.586 48.615,20.611 48.615,20.637C48.615,20.966 48.886,21.237 49.215,21.237C49.544,21.237 49.815,20.966 49.815,20.637C49.815,20.611 49.813,20.586 49.81,20.56C49.771,20.262 49.515,20.037 49.215,20.037C48.915,20.037 48.659,20.262 48.62,20.56" style="fill:white;fill-rule:nonzero;"/>
        </g>
        <g transform="matrix(1,0,0,1,-12,0)">
            <path d="M46.44,23.8L47.11,23.8L47.11,21.24C46.878,21.203 46.652,21.133 46.44,21.03L46.44,23.8Z" style="fill:white;fill-rule:nonzero;"/>
        </g>
        <g transform="matrix(1,0,0,1,-12,0)">
            <path d="M48.48,21C48.268,21.101 48.042,21.172 47.81,21.21L47.81,23.8L48.48,23.8L48.48,21Z" style="fill:white;fill-rule:nonzero;"/>
        </g>
        <g transform="matrix(1,0,0,1,-12,0)">
            <path d="M47.07,18.21L47.07,16.69C46.319,16.852 45.736,17.454 45.6,18.21L47.07,18.21Z" style="fill:white;fill-rule:nonzero;"/>
        </g>
        <g transform="matrix(1,0,0,1,-12,0)">
            <path d="M47.85,18.21L49.31,18.21C49.18,17.454 48.6,16.85 47.85,16.69L47.85,18.21Z" style="fill:white;fill-rule:nonzero;"/>
        </g>
        <g transform="matrix(1,0,0,1,-12,0)">
            <path d="M45.62,18.94C45.818,19.794 46.583,20.405 47.46,20.41C48.335,20.408 49.099,19.794 49.29,18.94L45.62,18.94Z" style="fill:white;fill-rule:nonzero;"/>
        </g>
        <g transform="matrix(1,0,0,1,-12,0)">
            <path d="M48.49,16.45C48.05,16.139 47.754,15.662 47.67,15.13C48.199,15.261 48.668,15.567 49,16L49,13.93C48.663,14.37 48.181,14.678 47.64,14.8C47.759,14.245 48.029,13.732 48.42,13.32L46.42,13.32C46.815,13.729 47.086,14.243 47.2,14.8C46.663,14.675 46.186,14.368 45.85,13.93L45.85,16C46.189,15.568 46.665,15.264 47.2,15.14C47.118,15.671 46.826,16.147 46.39,16.46L48.49,16.45Z" style="fill:white;fill-rule:nonzero;"/>
        </g>
        <g transform="matrix(1,0,0,1,-12,0)">
            <path d="M48.54,59.32C48.169,59.277 47.886,58.959 47.886,58.585C47.886,58.211 48.169,57.893 48.54,57.85C48.569,57.847 48.597,57.845 48.626,57.845C49.032,57.845 49.366,58.179 49.366,58.585C49.366,58.991 49.032,59.325 48.626,59.325C48.597,59.325 48.569,59.323 48.54,59.32M45,58.24C44.556,58.24 44.19,57.874 44.19,57.43C44.19,56.986 44.556,56.62 45,56.62C45.444,56.62 45.81,56.986 45.81,57.43C45.81,57.874 45.444,58.24 45,58.24M43.8,54.66L43.6,54.51C43.468,54.376 43.288,54.3 43.1,54.3C42.912,54.3 42.732,54.376 42.6,54.51C42.439,54.646 42.295,54.8 42.17,54.97L41.97,55.2L42.1,55.31C42.49,55.62 42.54,55.95 42.44,56.15C42.393,56.222 42.322,56.275 42.24,56.3C41.979,56.34 41.713,56.275 41.5,56.12L41.35,56L41.27,56.15L41.19,56.26L41.09,56.41C40.951,56.615 40.868,56.853 40.85,57.1C40.84,57.146 40.84,57.194 40.85,57.24C40.908,57.419 41.044,57.563 41.22,57.63L41.32,57.69L41.91,58.04C41.601,58.218 41.219,58.218 40.91,58.04C40.485,57.838 40.173,57.456 40.06,57C40.101,56.431 40.299,55.884 40.63,55.42L40.69,55.33L40.63,55.23C40.528,55.068 40.441,54.898 40.37,54.72C40.56,54.72 40.75,54.78 40.95,54.83L41.05,54.83L41.12,54.76C41.564,54.232 42.181,53.878 42.86,53.76C43.222,53.771 43.561,53.939 43.79,54.22C43.974,54.42 44.092,54.671 44.13,54.94C44.04,54.86 43.91,54.78 43.8,54.69M50.68,57.51C48.552,56.953 46.478,56.21 44.48,55.29C44.527,54.819 44.371,54.349 44.05,54C43.756,53.646 43.321,53.437 42.86,53.43C42.669,53.428 42.479,53.462 42.3,53.53C41.99,53.253 41.699,52.956 41.43,52.64C40.626,51.695 40.002,50.61 39.59,49.44C39.325,48.737 39.128,48.01 39,47.27C38.76,48.159 37.919,48.76 37,48.7C37,48.58 37,48.27 36.9,48.24C36.447,48.774 35.674,48.917 35.06,48.58C35.251,49.406 35.508,50.215 35.83,51C36.44,52.667 37.359,54.204 38.54,55.53C38.909,55.963 39.31,56.367 39.74,56.74C39.735,56.82 39.735,56.9 39.74,56.98C39.82,57.596 40.193,58.136 40.74,58.43C41.245,58.667 41.843,58.597 42.28,58.25C43.339,58.801 44.456,59.233 45.61,59.54C46.855,59.908 48.142,60.113 49.44,60.15C50.635,60.068 51.788,59.671 52.78,59C53.215,58.703 53.623,58.368 54,58C54.045,57.965 54.085,57.925 54.12,57.88C52.945,57.936 51.768,57.794 50.64,57.46" style="fill:white;fill-rule:nonzero;"/>
        </g>
        <g transform="matrix(1,0,0,1,-12,0)">
            <path d="M50.16,65.11C50.072,64.897 49.878,64.745 49.65,64.71C48.89,64.71 49.18,66.71 48.27,66.71C48.25,66.712 48.23,66.713 48.21,66.713C47.911,66.713 47.664,66.469 47.66,66.17C47.66,65.88 47.86,65.8 47.86,65.57C47.86,65.34 47.68,65.26 47.48,65.26C47.28,65.26 47.1,65.34 47.1,65.57C47.1,65.8 47.3,65.88 47.3,66.17C47.291,66.471 47.041,66.713 46.74,66.713C46.72,66.713 46.7,66.712 46.68,66.71C45.77,66.71 46.07,64.71 45.31,64.71C45.082,64.745 44.888,64.897 44.8,65.11C44.657,64.867 44.574,64.592 44.56,64.31C44.56,64.31 44.56,64.31 44.56,64.31C44.56,63.827 44.957,63.43 45.44,63.43C45.443,63.43 45.447,63.43 45.45,63.43C46.45,63.43 46.23,64.83 46.72,64.83C46.733,64.832 46.747,64.832 46.76,64.832C46.947,64.832 47.1,64.679 47.1,64.492C47.1,64.488 47.1,64.484 47.1,64.48C47.1,64.09 46.39,63.71 46.39,63.14C46.39,62.57 46.9,62.14 47.48,61.64C48.05,62.09 48.57,62.57 48.57,63.14C48.57,63.71 47.86,64.14 47.86,64.48C47.86,64.484 47.86,64.488 47.86,64.491C47.86,64.678 48.013,64.831 48.2,64.831C48.21,64.831 48.22,64.831 48.23,64.83C48.72,64.83 48.49,63.43 49.51,63.43C49.994,63.43 50.395,63.826 50.4,64.31C50.381,64.591 50.299,64.865 50.16,65.11M47.48,67.94C47.206,67.94 46.98,67.714 46.98,67.44C46.98,67.166 47.206,66.94 47.48,66.94C47.754,66.94 47.98,67.166 47.98,67.44L47.98,67.45C47.98,67.719 47.759,67.94 47.49,67.94C47.487,67.94 47.483,67.94 47.48,67.94M49.48,63.04C49.352,63.041 49.224,63.058 49.1,63.09L49.1,60.84C47.992,60.793 46.892,60.626 45.82,60.34L45.82,63.1C45.69,63.06 45.556,63.04 45.42,63.04C45.417,63.04 45.413,63.04 45.41,63.04C44.713,63.04 44.14,63.613 44.14,64.31C44.14,64.31 44.14,64.31 44.14,64.31C44.174,64.852 44.397,65.365 44.77,65.76C44.92,65.42 45.06,65.13 45.25,65.13C45.65,65.13 45.47,67.13 46.61,67.13C46.574,67.233 46.554,67.341 46.55,67.45C46.598,67.906 46.987,68.255 47.445,68.255C47.903,68.255 48.292,67.906 48.34,67.45C48.356,67.344 48.356,67.236 48.34,67.13C49.48,67.13 49.34,65.13 49.68,65.13C49.88,65.13 50,65.39 50.18,65.76C50.553,65.365 50.776,64.852 50.81,64.31C50.81,64.297 50.811,64.283 50.811,64.27C50.811,63.573 50.237,63 49.541,63C49.53,63 49.52,63 49.51,63" style="fill:white;fill-rule:nonzero;"/>
        </g>
        <g transform="matrix(1,0,0,1,-12,0)">
            <path d="M75.93,65.74C75.88,65.625 75.75,65.564 75.63,65.6C73,66.37 69.73,64.19 66.57,62.08C63.91,60.31 61.39,58.63 59.24,58.63C58.506,58.615 57.779,58.787 57.13,59.13C56.366,59.567 55.774,60.252 55.45,61.07C55.17,61.771 54.818,62.441 54.4,63.07C54.048,63.501 53.829,64.026 53.77,64.58C53.786,65.031 53.985,65.457 54.32,65.76C54.725,66.163 55.191,66.5 55.7,66.76L56.1,66.96C56.63,67.21 56.95,67.38 57.01,67.68C55.752,68.202 54.436,68.572 53.09,68.78C49.368,69.393 45.572,69.393 41.85,68.78C40.5,68.573 39.181,68.204 37.92,67.68C37.92,67.23 38.29,67.06 38.85,66.79L39.27,66.59C39.749,66.355 40.201,66.07 40.62,65.74C40.96,65.472 41.159,65.063 41.16,64.63C41.124,64.036 40.907,63.468 40.54,63C40.14,62.369 39.805,61.699 39.54,61C39.218,60.18 38.62,59.497 37.85,59.07C37.206,58.72 36.482,58.544 35.75,58.56C33.59,58.56 31.08,60.24 28.42,62.01C25.26,64.12 21.99,66.3 19.36,65.53C19.237,65.496 19.106,65.561 19.06,65.68C19.018,65.798 19.075,65.93 19.19,65.98C19.977,66.368 20.712,66.851 21.38,67.42C22.149,68.189 23.145,68.69 24.22,68.85C25.31,68.819 26.376,68.527 27.33,68C28.442,67.392 29.52,66.725 30.56,66C32.64,64.57 34.79,63.11 36.83,63C36.62,63.22 36.41,63.4 36.21,63.58C35.543,64.01 35.125,64.738 35.09,65.53C35.132,66.236 35.341,66.921 35.7,67.53C35.8,67.74 35.92,67.98 36.04,68.26C36.242,68.73 36.397,69.219 36.5,69.72C36.56,69.96 36.62,70.23 36.71,70.55C36.947,71.527 37.646,72.33 38.58,72.7C40.31,73.5 43.3,74 47.47,74C51.64,74 54.62,73.55 56.36,72.67C57.296,72.304 57.993,71.499 58.22,70.52C58.31,70.2 58.37,69.93 58.44,69.69C58.539,69.188 58.693,68.698 58.9,68.23C59.06,67.86 59.22,67.55 59.36,67.29C59.697,66.773 59.89,66.176 59.92,65.56C59.867,64.744 59.429,64 58.74,63.56C58.54,63.38 58.32,63.18 58.1,62.95C60.1,63.12 62.3,64.58 64.38,66.01C65.418,66.737 66.497,67.405 67.61,68.01C68.577,68.568 69.664,68.887 70.78,68.94C71.853,68.774 72.844,68.269 73.61,67.5C74.281,66.938 75.016,66.458 75.8,66.07C75.913,66.013 75.968,65.881 75.93,65.76" style="fill:white;fill-rule:nonzero;"/>
        </g>
        <g transform="matrix(1,0,0,1,-12,0)">
            <path d="M47.82,45.29L47.82,35.4C48.863,35.443 49.885,35.706 50.82,36.17C51.865,36.691 52.792,37.423 53.54,38.32C54.343,39.268 54.97,40.351 55.39,41.52C55.8,42.734 56.006,44.008 56,45.29L47.82,45.29ZM47.48,31.29C45.414,31.225 43.374,31.775 41.62,32.87C40.96,32.48 40.69,32.1 40.69,31.65C40.69,30.06 45.19,29.92 47.47,29.92C49.75,29.92 54.26,30.06 54.26,31.65C54.26,32.1 53.97,32.48 53.32,32.87C51.569,31.777 49.533,31.227 47.47,31.29M47.32,45.29L38.91,45.29C38.922,44.004 39.152,42.729 39.59,41.52C40.007,40.352 40.63,39.268 41.43,38.32C42.181,37.426 43.106,36.694 44.15,36.17C45.14,35.681 46.226,35.415 47.33,35.39L47.32,45.29ZM60.09,44.66C59.675,44.344 59.334,43.941 59.09,43.48C58.78,42.83 57.48,40.26 57.27,39.91C57.118,39.684 57.032,39.421 57.02,39.15C57.034,38.895 57.133,38.653 57.3,38.46C57.4,38.34 57.68,38.06 57.79,37.89C57.859,37.781 57.936,37.678 58.02,37.58C57.563,36.815 57.03,36.098 56.43,35.44C55.68,34.595 54.823,33.852 53.88,33.23C54.471,32.915 54.852,32.309 54.88,31.64C54.883,31.209 54.687,30.799 54.35,30.53C54.83,28.87 55.602,27.309 56.63,25.92L54.94,25.2C55.299,25.767 55.428,26.451 55.3,27.11C54.835,26.821 54.501,26.361 54.37,25.83C54.242,26.468 54.03,27.087 53.74,27.67C54.153,27.409 54.668,27.364 55.12,27.55C54.623,28.199 53.777,28.481 52.99,28.26C52.39,28.11 51.79,27.79 51.82,27.33C51.82,27.327 51.82,27.323 51.82,27.32C51.82,27.007 52.077,26.75 52.39,26.75C52.397,26.75 52.403,26.75 52.41,26.75C52.78,26.75 52.8,27.35 52.69,27.6C53.17,27.33 53.69,25.91 52.92,25.69C52.15,25.47 51.77,26.35 51.58,26.98C51.47,26.22 51.16,25.49 50.58,25.54C49.81,25.59 50.06,27.03 50.33,27.39C50.38,26.89 50.65,26.62 50.89,26.64C51.13,26.66 51.37,26.8 51.32,27.25C51.27,27.7 50.62,28 49.87,28C49.783,28.013 49.695,28.019 49.607,28.019C48.68,28.019 47.891,27.32 47.78,26.4C48.37,26.515 48.901,26.834 49.28,27.3C49.185,26.536 49.185,25.764 49.28,25C48.922,25.477 48.397,25.802 47.81,25.91C47.99,25.245 48.415,24.673 49,24.31L45.93,24.31C46.526,24.666 46.965,25.234 47.16,25.9C46.578,25.794 46.056,25.472 45.7,25C45.8,25.763 45.8,26.537 45.7,27.3C46.076,26.84 46.599,26.523 47.18,26.4C47.069,27.32 46.28,28.019 45.353,28.019C45.265,28.019 45.177,28.013 45.09,28C44.34,28 43.69,27.72 43.64,27.25C43.59,26.78 43.87,26.65 44.08,26.64C44.29,26.63 44.59,26.89 44.63,27.39C44.91,27.03 45.15,25.59 44.38,25.54C43.78,25.49 43.46,26.22 43.38,26.98C43.18,26.35 42.64,25.53 42.04,25.69C41.44,25.85 41.79,27.33 42.28,27.6C42.16,27.35 42.18,26.79 42.55,26.75C42.557,26.75 42.563,26.75 42.57,26.75C42.888,26.75 43.15,27.011 43.15,27.33C43.15,27.33 43.15,27.33 43.15,27.33C43.15,27.79 42.57,28.11 41.97,28.26C41.186,28.477 40.345,28.195 39.85,27.55C40.305,27.364 40.823,27.409 41.24,27.67C40.958,27.085 40.75,26.467 40.62,25.83C40.468,26.376 40.109,26.843 39.62,27.13C39.499,26.462 39.634,25.772 40,25.2L38.31,25.92C39.334,27.315 40.105,28.879 40.59,30.54C40.264,30.812 40.077,31.216 40.08,31.64C40.106,32.31 40.488,32.917 41.08,33.23C40.135,33.849 39.277,34.593 38.53,35.44C37.364,36.763 36.449,38.288 35.83,39.94C36.07,40.18 37.08,41.28 37.32,41.59C37.694,42.002 37.931,42.519 38,43.07C37.982,43.655 38.198,44.224 38.6,44.65C38.78,45.002 38.889,45.386 38.92,45.78L47.33,45.78L47.33,54.93C46.946,54.919 46.577,55.085 46.33,55.38C47.33,55.77 48.23,56.13 49.16,56.38C49.186,55.891 49.365,55.423 49.67,55.04C49.975,54.657 48.45,54.92 47.79,54.88L47.79,45.78L56,45.78C55.967,47.014 55.741,48.236 55.33,49.4C54.912,50.573 54.285,51.66 53.48,52.61C52.729,53.504 51.803,54.235 50.76,54.76C50.6,54.84 50.6,54.96 50.43,55.03C50.25,55.248 50.114,55.5 50.03,55.77C49.929,56.037 49.865,56.316 49.84,56.6C50.22,56.72 50.43,56.78 50.84,56.87C53.73,57.59 54.44,57.38 54.6,57.26C55.256,56.752 55.862,56.183 56.41,55.56C57.589,54.222 58.509,52.675 59.12,51C59.785,49.229 60.124,47.352 60.12,45.46L60.12,44.65" style="fill:white;fill-rule:nonzero;"/>
        </g>
        <g transform="matrix(1,0,0,1,-12,0)">
            <path d="M52.42,39.42C52.348,39.473 52.313,39.563 52.33,39.65C52.372,39.75 52.472,39.814 52.58,39.81C52.479,39.902 52.412,40.025 52.39,40.16C52.525,40.178 52.661,40.142 52.77,40.06C52.735,40.166 52.771,40.283 52.86,40.35C52.929,40.386 53.011,40.386 53.08,40.35C53.708,41.37 54.126,42.506 54.31,43.69C54.223,43.628 54.117,43.596 54.01,43.6C54.013,43.742 54.07,43.878 54.17,43.98L52.12,43.98C52.14,43.869 52.082,43.758 51.98,43.71C51.878,43.672 51.762,43.715 51.71,43.81C51.701,43.67 51.64,43.538 51.54,43.44C51.449,43.542 51.395,43.673 51.39,43.81C51.331,43.716 51.215,43.675 51.11,43.71C51.011,43.769 50.965,43.89 51,44L49.22,44C49.299,43.901 49.342,43.777 49.34,43.65C49.213,43.656 49.09,43.701 48.99,43.78L48.99,40.92C49.101,40.943 49.215,40.89 49.27,40.79C49.307,40.682 49.265,40.562 49.17,40.5C49.307,40.497 49.436,40.439 49.53,40.34C49.433,40.245 49.305,40.188 49.17,40.18C49.265,40.128 49.308,40.012 49.27,39.91C49.221,39.804 49.104,39.745 48.99,39.77L48.99,37.37C49.075,37.441 49.18,37.483 49.29,37.49C49.303,37.371 49.275,37.251 49.21,37.15C49.773,37.328 50.306,37.591 50.79,37.93C51.405,38.342 51.955,38.844 52.42,39.42M54.74,43.67C54.791,43.698 54.824,43.752 54.824,43.811C54.824,43.898 54.751,43.971 54.664,43.971C54.659,43.971 54.655,43.97 54.65,43.97C54.472,42.472 53.929,41.04 53.07,39.8C53.253,39.727 53.386,39.564 53.42,39.37C53.211,39.339 53.002,39.428 52.88,39.6C52.829,39.519 52.772,39.443 52.71,39.37C52.228,38.724 51.652,38.154 51,37.68C50.388,37.269 49.712,36.962 49,36.77C49,36.61 49.22,36.59 49.3,36.77C49.3,36.51 49.1,36.38 48.97,36.43C48.884,36.465 48.825,36.547 48.82,36.64C48.726,36.524 48.589,36.451 48.44,36.44C48.435,36.58 48.477,36.717 48.56,36.83C48.473,36.827 48.39,36.869 48.34,36.94C48.331,36.969 48.326,36.999 48.326,37.03C48.326,37.195 48.462,37.33 48.626,37.33C48.627,37.33 48.629,37.33 48.63,37.33C48.51,37.22 48.56,37.02 48.72,37.04L48.72,40.25C48.53,40.193 48.323,40.242 48.18,40.38C48.319,40.525 48.528,40.579 48.72,40.52L48.72,44C48.54,44 48.5,43.8 48.64,43.7C48.631,43.699 48.622,43.699 48.614,43.699C48.449,43.699 48.314,43.834 48.314,43.999C48.314,44.019 48.316,44.04 48.32,44.06C48.373,44.156 48.482,44.208 48.59,44.19C48.5,44.288 48.45,44.417 48.45,44.55C48.583,44.557 48.713,44.51 48.81,44.42C48.795,44.528 48.852,44.633 48.95,44.68C49.07,44.74 49.3,44.68 49.3,44.37C49.21,44.5 49,44.46 49,44.31L51.43,44.31C51.372,44.494 51.422,44.695 51.56,44.83C51.704,44.699 51.759,44.495 51.7,44.31L54.4,44.31C54.4,44.47 54.2,44.52 54.11,44.38C54.11,44.65 54.35,44.75 54.47,44.69C54.571,44.642 54.625,44.529 54.6,44.42C54.7,44.507 54.828,44.553 54.96,44.55C54.963,44.416 54.913,44.286 54.82,44.19C54.927,44.2 55.031,44.15 55.09,44.06C55.093,44.043 55.094,44.026 55.094,44.009C55.094,43.839 54.954,43.699 54.784,43.699C54.776,43.699 54.768,43.699 54.76,43.7" style="fill:white;fill-rule:nonzero;"/>
        </g>
        <g transform="matrix(1,0,0,1,-12,0)">
            <path d="M53.3,42.79C53.4,42.751 53.482,42.676 53.53,42.58C53.454,42.617 53.366,42.617 53.29,42.58C53.37,42.58 53.47,42.58 53.37,42.43C53.27,42.28 53.21,42.28 53.11,42.43C53.057,42.445 53.003,42.453 52.948,42.453C52.648,42.453 52.394,42.22 52.37,41.92C52.421,42.005 52.498,42.072 52.59,42.11L52.94,42.11C53.074,42.097 53.182,41.993 53.2,41.86C53.2,41.59 52.97,41.46 52.69,41.22C52.57,41.13 52.5,41.05 52.42,40.98C52.34,40.91 52.42,40.62 52.15,40.26C52.127,40.155 52.097,40.051 52.06,39.95C51.903,40.284 51.967,40.682 52.22,40.95C52.49,41.25 53.07,41.53 53.05,41.79C53.033,41.861 52.973,41.913 52.9,41.92L52.64,41.92L52.44,41.76C52.217,41.527 52.013,41.276 51.83,41.01C51.634,40.714 51.597,40.339 51.73,40.01C51.92,39.75 51.61,39.21 51.44,39.08C51.464,38.988 51.464,38.892 51.44,38.8C51.416,38.708 51.32,38.8 51.28,38.8C51.24,38.8 51.21,38.68 51.14,38.67C51.07,38.66 51.02,38.58 51.02,38.54C51.02,38.5 50.92,38.66 50.85,38.67C50.78,38.68 50.72,38.67 50.68,38.67C50.626,38.72 50.553,38.745 50.48,38.74C50.36,38.74 50.37,38.8 50.38,38.88C50.39,38.96 50.38,39.01 50.46,39.03L50.55,39.14L50.55,39.02L50.77,39.02C50.8,39.02 50.77,39.11 50.77,39.12C50.69,39.13 50.61,39.13 50.53,39.12C50.47,39.12 50.47,39.2 50.47,39.26C50.47,39.32 50.55,39.35 50.67,39.26C50.79,39.17 51.04,39.26 51.04,39.32C51.04,39.61 50.7,39.61 50.63,39.95C50.552,39.9 50.484,39.835 50.43,39.76C50.363,39.648 50.278,39.547 50.18,39.46C50.103,39.382 50.02,39.312 49.93,39.25C49.81,39.18 49.81,39.12 49.81,39C49.815,38.903 49.815,38.807 49.81,38.71C49.817,38.684 49.817,38.656 49.81,38.63C49.792,38.563 49.729,38.518 49.66,38.52C49.692,38.549 49.713,38.588 49.72,38.63L49.67,38.68C49.653,38.691 49.643,38.71 49.643,38.73C49.643,38.75 49.653,38.769 49.67,38.78L49.67,39C49.67,39 49.62,38.82 49.54,38.81C49.54,38.74 49.46,38.67 49.36,38.81C49.26,38.95 49.42,38.81 49.44,38.81C49.438,38.837 49.438,38.863 49.44,38.89C49.44,38.96 49.44,39 49.58,39C49.72,39 49.58,39 49.58,39C49.44,39 49.39,39 49.38,39.07C49.37,39.14 49.38,39.07 49.38,39.07C49.38,39.07 49.32,39.17 49.38,39.23C49.44,39.29 49.38,39.16 49.38,39.15C49.38,39.14 49.38,39.15 49.38,39.15L49.45,39.15C49.52,39.15 49.45,39.15 49.45,39.15C49.36,39.23 49.38,39.3 49.45,39.33C49.43,39.361 49.395,39.379 49.358,39.379C49.298,39.379 49.248,39.33 49.248,39.269C49.248,39.263 49.249,39.256 49.25,39.25C49.14,39.44 49.33,39.56 49.48,39.49C49.63,39.42 49.48,39.69 49.48,39.69C49.48,39.693 49.479,39.697 49.479,39.7C49.479,39.746 49.514,39.785 49.56,39.79C49.724,39.814 49.878,39.888 50,40C50.117,40.271 50.321,40.497 50.58,40.64C50.423,40.743 50.284,40.871 50.17,41.02C50.07,41.11 49.93,41.22 49.84,41.17C49.804,41.135 49.771,41.099 49.74,41.06C49.704,41.047 49.666,41.047 49.63,41.06L49.57,41.06C49.506,41.039 49.435,41.059 49.39,41.11C49.429,41.096 49.471,41.096 49.51,41.11L49.51,41.18C49.51,41.18 49.51,41.26 49.72,41.26C49.689,41.276 49.651,41.276 49.62,41.26C49.54,41.26 49.5,41.17 49.44,41.26L49.44,41.31C49.38,41.31 49.31,41.47 49.44,41.53C49.425,41.495 49.425,41.455 49.44,41.42C49.49,41.5 49.55,41.54 49.67,41.37C49.67,41.37 49.57,41.57 49.67,41.59C49.698,41.672 49.788,41.716 49.87,41.69C49.819,41.666 49.78,41.623 49.76,41.57C49.83,41.51 49.76,41.43 49.76,41.38C49.76,41.33 49.76,41.38 49.76,41.38C49.776,41.43 49.822,41.464 49.874,41.464C49.894,41.464 49.913,41.459 49.93,41.45C49.972,41.424 49.998,41.379 50,41.33C50.097,41.274 50.21,41.253 50.32,41.27C50.32,41.21 50.38,41.12 50.5,41.08C50.62,41.04 50.69,41.08 50.73,41.08C50.814,41.036 50.906,41.009 51,41C51,41.52 51.67,41.5 51.83,41.81C51.657,41.724 51.463,41.686 51.27,41.7C51.1,41.7 50.8,41.89 50.76,42.08C50.771,42.299 50.881,42.502 51.06,42.63L50.61,42.63C50.46,42.63 50.43,42.37 50.24,42.44C50.17,42.44 50.06,42.52 50.09,42.6C50.123,42.566 50.164,42.542 50.21,42.53C50.256,42.518 50.21,42.59 50.28,42.59L50.35,42.59C50.35,42.59 50.13,42.59 50.17,42.74C50.166,42.76 50.166,42.78 50.17,42.8C50.17,42.86 50.17,42.92 50.32,42.89C50.47,42.86 50.26,42.84 50.32,42.81C50.38,42.78 50.32,42.81 50.32,42.81L50.32,43C50.329,43.058 50.38,43.102 50.439,43.102C50.469,43.102 50.498,43.09 50.52,43.07C50.542,43.05 50.42,43.07 50.42,43.07C50.429,43.051 50.429,43.029 50.42,43.01C50.411,42.991 50.42,43.01 50.42,43.01C50.449,43.058 50.505,43.082 50.56,43.07C50.588,43.061 50.612,43.043 50.63,43.02C50.661,43.029 50.688,43.047 50.71,43.07C50.71,42.99 50.71,42.93 50.91,43.07L51.02,42.98C51.02,42.98 51.17,43.05 51.23,42.98C51.29,42.91 51.23,42.88 51.23,42.8C51.23,42.72 51.12,42.66 51.08,42.51C51.04,42.36 51.39,42.12 51.59,42.16C51.697,42.48 51.933,42.741 52.24,42.88C52.48,42.95 52.57,42.7 52.65,42.73C52.73,42.76 52.65,42.73 52.65,42.8C52.658,42.893 52.658,42.987 52.65,43.08C52.65,43.14 52.5,43.08 52.41,43.08C52.381,43.07 52.349,43.07 52.32,43.08C52.25,43.08 52.16,43.16 52.16,43.25C52.198,43.213 52.247,43.188 52.3,43.18C52.3,43.184 52.299,43.187 52.299,43.191C52.299,43.246 52.345,43.291 52.399,43.291C52.431,43.291 52.461,43.276 52.48,43.25C52.499,43.224 52.48,43.25 52.48,43.25C52.48,43.25 52.32,43.39 52.41,43.43L52.46,43.43C52.453,43.489 52.492,43.545 52.55,43.56C52.608,43.575 52.55,43.56 52.55,43.44C52.61,43.44 52.55,43.32 52.66,43.28C52.77,43.24 52.66,43.28 52.66,43.28L52.66,43.45L52.71,43.45C52.729,43.494 52.772,43.522 52.82,43.522C52.845,43.522 52.87,43.515 52.89,43.5C52.91,43.485 52.82,43.5 52.81,43.44L52.86,43.38C52.86,43.22 52.77,43.22 52.77,43.16C52.77,43.1 52.92,43.16 52.92,42.98C53,42.98 53.07,42.9 53.08,42.84C53.018,42.859 52.952,42.859 52.89,42.84L53.3,42.79Z" style="fill:white;fill-rule:nonzero;"/>
        </g>
        <g transform="matrix(1,0,0,1,-12,0)">
            <path d="M45.65,47.36L45.54,47.36C45.522,47.356 45.504,47.355 45.486,47.355C45.355,47.355 45.242,47.45 45.22,47.58C45.22,47.587 45.219,47.593 45.219,47.6C45.219,47.75 45.34,47.875 45.49,47.88L45.58,47.88L45.58,48C45.58,48.25 45.48,48.66 45.41,49.15L44.15,47.35C44.568,47.141 45.007,46.977 45.46,46.86C45.67,46.86 45.71,46.96 45.67,47.36M45.19,50.49L43.19,47.65C43.405,47.605 43.616,47.541 43.82,47.46L45.32,49.59L45.17,50.49M45,51.77L42.19,47.77L42.45,47.77C42.593,47.78 42.737,47.78 42.88,47.77L45.13,51C45.08,51.31 45.03,51.59 45,51.83M41.83,47.83L44.91,52.25C42.996,51.662 41.719,49.83 41.83,47.83M46.4,47.48L46.26,47.48L46.26,47.35C46.265,47.316 46.267,47.282 46.267,47.249C46.267,46.832 45.924,46.489 45.507,46.489C45.491,46.489 45.476,46.489 45.46,46.49C44.597,46.784 43.705,46.989 42.8,47.1C42.237,47.065 41.691,46.893 41.21,46.6L41.04,46.98C41.04,46.804 40.896,46.66 40.72,46.66C40.544,46.66 40.4,46.804 40.4,46.98C40.4,47.156 40.544,47.3 40.72,47.3C40.817,47.299 40.908,47.255 40.97,47.18L40.8,47.56L40.98,47.63C40.918,49.999 42.474,52.129 44.75,52.79C45.12,52.69 45.51,52.79 45.51,53.15C45.513,53.168 45.515,53.186 45.515,53.205C45.515,53.375 45.375,53.515 45.205,53.515C45.186,53.515 45.168,53.513 45.15,53.51C45,53.51 44.91,53.43 44.91,53.32C44.91,53.21 45.2,53.26 45.23,53.14C45.26,53.02 45.17,52.92 45,52.92C44.99,52.919 44.98,52.919 44.97,52.919C44.748,52.919 44.565,53.098 44.56,53.32C44.56,53.327 44.56,53.334 44.56,53.341C44.56,53.637 44.803,53.881 45.1,53.881C45.11,53.881 45.12,53.881 45.13,53.88C45.149,53.882 45.169,53.882 45.189,53.882C45.595,53.882 45.929,53.548 45.929,53.142C45.929,53.105 45.926,53.067 45.92,53.03C46.05,53.03 46.21,53.03 46.25,52.89L46.25,52.49L46.12,52.49L46.22,48.06L46.32,48.06C46.34,48.065 46.36,48.067 46.381,48.067C46.515,48.067 46.628,47.964 46.64,47.83C46.64,47.64 46.51,47.57 46.37,47.55" style="fill:white;fill-rule:nonzero;"/>
        </g>
        <g transform="matrix(1,0,0,1,-12,0)">
            <path d="M44.13,38.05L44.13,37.99C44.148,38.003 44.172,38.003 44.19,37.99C44.208,37.977 44.19,37.94 44.14,37.91C44.09,37.88 44.19,37.91 44.14,37.91L44.06,37.91C44.04,37.91 44.06,37.91 44.11,37.91L44.27,37.98L44.27,38.04C44.27,38.1 44.27,37.99 44.22,37.98C44.17,37.97 44.22,37.98 44.22,38.04C44.22,38.1 44.15,38.04 44.13,38.04C44.117,38.049 44.11,38.064 44.11,38.08C44.11,38.096 44.117,38.111 44.13,38.12C44.139,38.146 44.139,38.174 44.13,38.2C44.121,38.226 44.07,38.29 44.01,38.26C43.992,38.243 43.982,38.22 43.982,38.195C43.982,38.17 43.992,38.147 44.01,38.13M44.2,37.72C44.2,37.72 44.11,37.81 44.07,37.72C44.03,37.63 44.07,37.66 44.07,37.58C44.118,37.623 44.177,37.654 44.24,37.67M44.36,37.74C44.418,37.778 44.482,37.805 44.55,37.82C44.47,37.82 44.49,37.87 44.43,37.87C44.37,37.87 44.34,37.79 44.36,37.74M45.76,38.52C46.36,38.52 46.65,38.33 46.65,38.14C46.65,37.47 45,37.89 45,37.48C45.01,37.402 45.059,37.334 45.13,37.3C45.96,37.23 45.97,36.65 46.56,36.54C45.85,36.44 45.75,37 45.45,37.02C45.578,36.957 45.657,36.823 45.65,36.68C45.51,36.87 45.19,36.89 45.01,37.11C44.993,37.148 44.993,37.192 45.01,37.23C44.915,37.275 44.851,37.366 44.84,37.47C44.84,38.1 46.51,37.67 46.51,38.13C46.51,38.29 46.22,38.4 45.76,38.4C45.3,38.4 45.17,38.15 44.53,38.31C44.53,38.21 44.74,38.01 44.66,37.91C44.719,37.891 44.761,37.841 44.77,37.78C44.737,37.749 44.695,37.728 44.65,37.72C44.605,37.712 44.65,37.66 44.65,37.64L44.65,37.55C44.613,37.505 44.565,37.47 44.51,37.45C44.462,37.427 44.412,37.41 44.36,37.4L44.19,37.4C44.152,37.371 44.107,37.354 44.06,37.35C44.039,37.408 44.039,37.472 44.06,37.53C44,37.53 43.94,37.69 43.88,37.67C43.82,37.65 43.88,37.74 43.94,37.74C44,37.74 43.87,37.94 43.81,37.94C43.774,38.065 43.747,38.192 43.73,38.32C43.691,38.279 43.647,38.242 43.6,38.21C43.5,38.16 43.51,38.11 43.53,38.02C43.55,37.93 43.6,37.86 43.6,37.79L43.6,37.71C43.582,37.654 43.529,37.617 43.47,37.62C43.483,37.649 43.483,37.681 43.47,37.71C43.45,37.733 43.45,37.767 43.47,37.79C43.49,37.813 43.47,37.79 43.47,37.79C43.47,37.73 43.47,37.64 43.38,37.64L43.3,37.64C43.3,37.64 43.24,37.53 43.14,37.64C43.163,37.632 43.187,37.632 43.21,37.64C43.206,37.66 43.206,37.68 43.21,37.7C43.21,37.77 43.21,37.79 43.31,37.79C43.2,37.79 43.14,37.79 43.12,37.84C43.1,37.89 43.05,37.92 43.12,37.97C43.19,38.02 43.12,37.91 43.17,37.9L43.24,37.9C43.24,37.9 43.15,38.04 43.24,38.06C43.33,38.08 43.24,38.06 43.24,38.06C43.24,38.115 43.195,38.16 43.14,38.16C43.085,38.16 43.04,38.115 43.04,38.06C42.92,38.2 43.04,38.33 43.24,38.25C43.44,38.17 43.24,38.25 43.24,38.25C43.24,38.25 43.24,38.34 43.3,38.34C43.36,38.34 43.3,38.34 43.3,38.34C43.3,38.34 43.37,38.45 43.45,38.54C43.333,38.598 43.208,38.638 43.08,38.66C42.984,38.641 42.886,38.641 42.79,38.66C42.7,38.66 42.47,38.79 42.4,38.66C42.33,38.53 42.4,38.6 42.4,38.55C42.4,38.5 42.4,38.49 42.33,38.49C42.279,38.455 42.211,38.455 42.16,38.49C42.109,38.525 42.23,38.49 42.25,38.55C42.27,38.61 42.25,38.55 42.25,38.6C42.25,38.65 42.25,38.68 42.39,38.73C42.53,38.78 42.39,38.73 42.39,38.73C42.367,38.738 42.343,38.738 42.32,38.73C42.25,38.73 42.25,38.62 42.18,38.66C42.11,38.66 42.01,38.73 42.06,38.81C42.071,38.773 42.102,38.746 42.14,38.74C42.139,38.757 42.139,38.773 42.14,38.79C42.14,38.86 42.19,38.92 42.34,38.79C42.49,38.66 42.34,38.79 42.34,38.79C42.34,38.79 42.21,38.92 42.34,38.97C42.34,38.973 42.34,38.977 42.34,38.98C42.34,39.051 42.398,39.11 42.47,39.11C42.47,39.11 42.47,39.11 42.47,39.11C42.455,39.071 42.455,39.029 42.47,38.99C42.54,38.99 42.47,38.87 42.55,38.84C42.63,38.81 42.55,38.84 42.55,38.84C42.55,38.84 42.55,38.96 42.66,38.95C42.724,38.945 42.775,38.894 42.78,38.83C42.785,38.766 42.78,38.83 42.78,38.83C42.818,38.848 42.839,38.889 42.83,38.93C42.855,38.911 42.875,38.887 42.89,38.86C42.922,38.905 42.922,38.965 42.89,39.01C42.962,38.992 43.017,38.933 43.03,38.86L43.03,38.91C43.088,38.929 43.152,38.929 43.21,38.91C43.268,38.891 43.21,38.98 43.21,39L43.21,39.14C43.21,38.92 43.35,39 43.49,38.91C43.63,38.82 43.49,38.91 43.49,38.91L43.42,38.98C43.35,39.05 43.59,38.93 43.59,38.85L43.69,38.77C43.75,38.786 43.813,38.756 43.84,38.7C43.867,38.644 43.84,38.79 43.84,38.81C43.98,38.81 44.14,38.65 44.2,38.64C44.51,38.57 44,38.35 44.64,38.38C44.708,38.38 44.774,38.359 44.83,38.32C44.83,38.41 44.83,38.61 44.88,38.62C44.939,38.629 44.994,38.653 45.04,38.69C45.086,38.727 45.04,38.69 45.04,38.69L44.9,38.69C44.75,38.79 44.74,38.47 44.58,38.53C44.51,38.53 44.42,38.61 44.43,38.67C44.458,38.637 44.497,38.615 44.54,38.61C44.583,38.605 44.54,38.61 44.6,38.61L44.67,38.61C44.67,38.67 44.48,38.61 44.52,38.74C44.52,38.74 44.52,38.84 44.64,38.82C44.76,38.8 44.64,38.82 44.64,38.76C44.64,38.7 44.64,38.76 44.64,38.76C44.638,38.777 44.638,38.793 44.64,38.81C44.64,38.87 44.72,38.93 44.81,38.87C44.781,38.883 44.749,38.883 44.72,38.87C44.691,38.857 44.72,38.87 44.72,38.81L44.78,38.81C44.816,38.834 44.864,38.834 44.9,38.81C45.01,38.81 44.9,38.68 45,38.66L45.3,38.66C45.324,38.571 45.292,38.477 45.22,38.42C45.148,38.363 45.22,38.33 45.22,38.25C45.319,38.3 45.429,38.327 45.54,38.33C45.77,38.33 45.54,38.33 45.66,38.23C45.747,38.198 45.843,38.198 45.93,38.23C46.017,38.262 45.99,38.23 45.93,38.29C45.87,38.35 45.93,38.42 45.93,38.47C45.93,38.52 45.81,38.47 45.75,38.47L45.68,38.47C45.611,38.475 45.555,38.531 45.55,38.6C45.583,38.591 45.617,38.591 45.65,38.6C45.659,38.647 45.7,38.681 45.748,38.681C45.771,38.681 45.792,38.674 45.81,38.66C45.828,38.646 45.81,38.66 45.81,38.66C45.81,38.66 45.69,38.77 45.81,38.8C45.811,38.85 45.843,38.893 45.89,38.91C45.937,38.927 45.89,38.91 45.89,38.81C45.94,38.81 45.89,38.71 45.98,38.68L45.98,38.83C45.995,38.851 46.019,38.863 46.045,38.863C46.071,38.863 46.095,38.851 46.11,38.83C46.125,38.809 46.06,38.83 46.06,38.78C46.06,38.65 45.99,38.65 45.99,38.61C45.99,38.57 46.11,38.61 46.11,38.46C46.11,38.426 46.09,38.395 46.06,38.38C46.03,38.365 46.12,38.38 46.15,38.38C46.18,38.38 46.08,38.3 46.07,38.25C46.087,38.212 46.087,38.168 46.07,38.13C46.053,38.092 45.93,38.21 45.93,38.13C45.93,38.05 45.93,38.06 45.83,38.13C45.73,38.2 45.6,38.06 45.31,38.04" style="fill:white;fill-rule:nonzero;"/>
        </g>
        <g transform="matrix(1,0,0,1,-12,0)">
            <path d="M42.65,40.65C42.65,40.65 42.65,40.57 42.7,40.57L42.78,40.57C42.79,40.57 42.78,40.51 42.71,40.48C42.64,40.45 42.78,40.48 42.71,40.42C42.64,40.36 42.64,40.42 42.63,40.42C42.62,40.42 42.63,40.42 42.63,40.42L42.69,40.42L42.87,40.51L42.87,40.56L42.87,40.62C42.87,40.68 42.87,40.56 42.82,40.56C42.77,40.56 42.82,40.56 42.82,40.63C42.82,40.7 42.74,40.63 42.72,40.63C42.697,40.659 42.697,40.701 42.72,40.73C42.743,40.759 42.72,40.78 42.72,40.82C42.72,40.86 42.65,40.93 42.58,40.88C42.542,40.841 42.542,40.779 42.58,40.74M42.8,40.26C42.8,40.31 42.71,40.36 42.65,40.31C42.59,40.26 42.65,40.24 42.59,40.15C42.653,40.198 42.724,40.235 42.8,40.26M42.94,40.34C43.013,40.379 43.09,40.409 43.17,40.43C43.06,40.43 43.09,40.49 43.02,40.49C42.95,40.49 42.93,40.4 42.94,40.34M46.6,40.84C46.6,40.66 46.39,40.54 45.81,40.54C45.23,40.54 44,40.65 44,40.32C44,40.15 44.25,40.17 44.57,40.19C44.601,40.226 44.643,40.25 44.69,40.26C45.45,40.48 46.34,40.08 46.8,40.26C46.26,39.85 45.8,40.26 45.23,40.15C45.57,40.15 45.69,40.06 45.7,39.96C45.44,40.13 44.94,39.88 44.64,40.07C44.22,40.07 43.89,40.07 43.89,40.33C43.89,40.92 45.46,40.58 45.95,40.58C46.44,40.58 46.55,40.58 46.55,40.72C46.55,40.86 46.06,40.9 45.78,40.9C44.951,40.791 44.114,40.767 43.28,40.83C43.35,40.7 43.49,40.53 43.41,40.44C43.476,40.415 43.525,40.359 43.54,40.29L43.4,40.23L43.4,40.12C43.403,40.087 43.403,40.053 43.4,40.02C43.349,39.975 43.292,39.938 43.23,39.91C43.167,39.903 43.103,39.903 43.04,39.91C42.977,39.917 42.95,39.91 42.94,39.91L42.84,39.91C42.805,39.876 42.759,39.855 42.71,39.85C42.678,39.916 42.678,39.994 42.71,40.06C42.64,40.06 42.56,40.24 42.49,40.22C42.505,40.253 42.53,40.281 42.56,40.3C42.51,40.4 42.48,40.52 42.41,40.52C42.431,40.563 42.467,40.599 42.51,40.62L42.51,40.84L42.39,40.79L42.32,40.79C42.239,40.71 42.152,40.636 42.06,40.57C41.95,40.5 41.95,40.45 41.95,40.33C41.95,40.21 42.01,40.13 42.01,40.04L42.01,39.94C42.01,39.91 41.92,39.83 41.86,39.84C41.896,39.861 41.919,39.899 41.92,39.94L41.92,40C41.895,40.032 41.895,40.078 41.92,40.11C41.945,40.142 41.92,40.11 41.92,40.11C41.92,40.04 41.86,39.93 41.8,39.93C41.8,39.85 41.72,39.8 41.63,39.93C41.54,40.06 41.69,39.93 41.7,39.93C41.697,39.957 41.697,39.983 41.7,40.01C41.7,40.08 41.7,40.1 41.83,40.11C41.96,40.12 41.83,40.11 41.83,40.11C41.83,40.11 41.65,40.11 41.64,40.17L41.64,40.22C41.64,40.22 41.58,40.33 41.64,40.39C41.7,40.45 41.64,40.31 41.64,40.3C41.64,40.29 41.64,40.3 41.72,40.3C41.8,40.3 41.72,40.3 41.72,40.3C41.72,40.3 41.64,40.47 41.72,40.49C41.72,40.55 41.67,40.6 41.61,40.6C41.55,40.6 41.5,40.55 41.5,40.49C41.37,40.69 41.58,40.83 41.74,40.74L41.74,40.8C41.74,40.86 41.74,40.8 41.74,40.8C41.74,40.8 41.74,40.9 41.81,40.91C41.88,40.92 41.81,40.84 41.81,40.84C41.81,40.84 41.91,40.97 42.04,41.05C42.17,41.13 42.23,41.21 42.3,41.14C42.3,41.25 42.39,41.38 42.37,41.38C42.234,41.361 42.096,41.361 41.96,41.38C41.84,41.44 41.58,41.54 41.5,41.43C41.42,41.32 41.5,41.35 41.44,41.29C41.42,41.256 41.388,41.231 41.35,41.22L41.29,41.22C41.237,41.18 41.163,41.18 41.11,41.22C41.152,41.227 41.189,41.253 41.21,41.29L41.21,41.34C41.21,41.34 41.21,41.43 41.37,41.5C41.343,41.518 41.307,41.518 41.28,41.5C41.21,41.45 41.2,41.37 41.12,41.41C41.1,41.416 41.08,41.416 41.06,41.41C40.98,41.41 40.87,41.49 40.92,41.58C40.97,41.67 40.92,41.52 41.01,41.5C41.1,41.48 41.01,41.55 41.01,41.56C41.01,41.57 41.01,41.72 41.24,41.56C41.24,41.56 41.09,41.71 41.18,41.78C41.179,41.787 41.179,41.794 41.179,41.801C41.179,41.882 41.24,41.951 41.32,41.96C41.297,41.913 41.297,41.857 41.32,41.81C41.41,41.81 41.32,41.66 41.42,41.64C41.52,41.62 41.42,41.78 41.55,41.78C41.68,41.78 41.7,41.68 41.69,41.63C41.68,41.58 41.69,41.63 41.69,41.63C41.71,41.664 41.71,41.706 41.69,41.74C41.67,41.774 41.74,41.74 41.76,41.67C41.795,41.721 41.795,41.789 41.76,41.84C41.84,41.817 41.902,41.751 41.92,41.67L41.92,41.73C41.985,41.751 42.055,41.751 42.12,41.73C42.185,41.709 42.12,41.73 42.12,41.73C42.104,41.761 42.104,41.799 42.12,41.83C42.136,41.861 42.12,41.78 42.12,41.78C42.12,41.78 42.12,41.88 42.18,41.94C42.18,41.68 42.34,41.78 42.51,41.67C42.499,41.705 42.474,41.735 42.44,41.75C42.62,41.8 42.91,41.52 42.95,41.4C43.007,41.396 43.063,41.396 43.12,41.4C43.63,41.4 43.28,40.94 44.12,41.08C44.198,41.074 44.272,41.042 44.33,40.99C44.26,41.1 44.26,41.32 44.38,41.34C44.449,41.356 44.514,41.386 44.57,41.43C44.626,41.474 44.57,41.43 44.57,41.43C44.517,41.436 44.466,41.453 44.42,41.48C44.24,41.59 44.24,41.21 44.05,41.28C43.98,41.28 43.87,41.36 43.89,41.44C43.923,41.408 43.965,41.387 44.01,41.38C44.055,41.373 44.01,41.44 44.08,41.44L44.15,41.44C44.15,41.44 43.91,41.44 43.95,41.59L43.95,41.65C43.95,41.71 43.95,41.77 44.09,41.74C44.23,41.71 44.03,41.74 44.04,41.67L44.09,41.67C44.087,41.69 44.087,41.71 44.09,41.73C44.09,41.8 44.18,41.88 44.29,41.81C44.4,41.74 44.19,41.81 44.18,41.75C44.17,41.69 44.18,41.75 44.18,41.68L44.28,41.68C44.29,41.726 44.331,41.759 44.378,41.759C44.392,41.759 44.407,41.756 44.42,41.75C44.55,41.75 44.42,41.6 44.54,41.57L44.89,41.57C44.923,41.462 44.883,41.344 44.79,41.28C44.73,41.28 44.79,41.17 44.79,41.08C44.905,41.138 45.031,41.169 45.16,41.17C45.318,41.187 45.478,41.148 45.61,41.06C45.716,41.017 45.834,41.017 45.94,41.06C46.046,41.103 46,41.06 45.99,41.12C45.98,41.18 45.99,41.28 45.99,41.34C45.99,41.4 45.84,41.34 45.77,41.34C45.742,41.326 45.708,41.326 45.68,41.34C45.62,41.34 45.54,41.42 45.55,41.49C45.585,41.462 45.626,41.442 45.67,41.43C45.667,41.44 45.665,41.45 45.665,41.46C45.665,41.509 45.706,41.55 45.755,41.55C45.793,41.55 45.827,41.526 45.84,41.49C45.853,41.454 45.84,41.49 45.84,41.49C45.84,41.49 46,42 46.06,42C46.12,42 46.06,42 46.06,42C46.053,42.059 46.092,42.115 46.15,42.13C46.208,42.145 46.15,42.13 46.15,42.01C46.21,42.01 46.15,41.9 46.25,41.86L46.25,42.03C46.268,42.075 46.312,42.105 46.361,42.105C46.382,42.105 46.402,42.1 46.42,42.09C46.438,42.08 46.36,42.09 46.35,42.02C46.34,41.95 46.35,42.02 46.35,41.96C46.35,41.9 46.26,41.82 46.26,41.76C46.26,41.7 46.41,41.76 46.41,41.59C46.412,41.55 46.388,41.513 46.35,41.5C46.312,41.487 46.43,41.5 46.45,41.5C46.47,41.5 46.37,41.42 46.36,41.37C46.412,41.34 46.433,41.275 46.41,41.22C46.41,41.27 46.26,41.32 46.24,41.22C46.22,41.12 46.24,41.15 46.14,41.22C45.926,41.218 45.712,41.201 45.5,41.17C45.88,41.17 46.5,41.06 46.5,40.85" style="fill:white;fill-rule:nonzero;"/>
        </g>
        <g transform="matrix(1,0,0,1,-12,0)">
            <path d="M42,43.23C42,43.23 42,43.16 42.06,43.16L42.13,43.16C42.14,43.16 42.13,43.09 42.07,43.07C42.01,43.05 42.13,43.07 42.07,43.02C42.01,42.97 42,43 42,43L42.05,43L42.23,43.08L42.23,43.13L42.23,43.19C42.23,43.25 42.23,43.13 42.17,43.13C42.11,43.13 42.17,43.13 42.17,43.19C42.17,43.25 42.08,43.19 42.07,43.19C42.057,43.199 42.05,43.214 42.05,43.23C42.05,43.246 42.057,43.261 42.07,43.27C42.083,43.279 42.07,43.27 42.07,43.36C42.07,43.45 42,43.46 41.94,43.43C41.907,43.39 41.907,43.33 41.94,43.29M42.15,42.84C42.15,42.84 42.06,42.93 42.02,42.84C41.98,42.75 42.02,42.78 41.96,42.69C42.018,42.735 42.082,42.772 42.15,42.8M42.29,42.87C42.359,42.909 42.433,42.939 42.51,42.96C42.41,42.96 42.43,43.01 42.36,43.01C42.29,43.01 42.28,42.93 42.29,42.87M46.38,43.32C46.38,43.15 46.19,43.04 45.63,43.04C45.07,43.04 43.35,43.25 43.35,42.93C43.35,42.61 43.93,42.82 44.35,42.83C44.35,42.83 44.41,42.89 44.47,42.91C45.19,43.11 45.95,42.63 46.47,42.81C46.06,42.43 45.54,42.81 44.99,42.73C45.31,42.73 45.64,42.66 45.66,42.58C45.42,42.74 44.71,42.47 44.42,42.65L44.37,42.65C43.84,42.65 43.19,42.58 43.19,42.89C43.19,43.46 45.19,43.13 45.62,43.13C46.05,43.13 46.19,43.18 46.19,43.26C46.19,43.34 45.72,43.43 45.46,43.43C44.463,43.318 43.457,43.318 42.46,43.43C42.46,43.3 42.68,43.12 42.6,43.02C42.52,42.92 42.72,42.94 42.72,42.89C42.682,42.851 42.633,42.823 42.58,42.81C42.527,42.797 42.58,42.75 42.58,42.72L42.58,42.62C42.532,42.579 42.478,42.545 42.42,42.52C42.369,42.487 42.31,42.47 42.25,42.47C42.19,42.47 42.16,42.47 42.15,42.47L42.05,42.47C42.015,42.443 41.974,42.426 41.93,42.42C41.9,42.483 41.9,42.557 41.93,42.62C41.86,42.62 41.79,42.79 41.73,42.77C41.67,42.75 41.73,42.84 41.79,42.84C41.85,42.84 41.71,43.06 41.65,43.07C41.665,43.095 41.685,43.115 41.71,43.13C41.706,43.187 41.706,43.243 41.71,43.3L41.47,43.3C41.38,43.3 41.32,43.15 41.17,43.06C41.02,42.97 41,43 41,42.84C41,42.68 41.05,42.65 41.05,42.57C41.044,42.54 41.044,42.51 41.05,42.48C41.023,42.421 40.965,42.382 40.9,42.38C40.918,42.411 40.918,42.449 40.9,42.48L40.9,42.53C40.887,42.543 40.879,42.561 40.879,42.58C40.879,42.599 40.887,42.617 40.9,42.63C40.913,42.643 40.9,42.63 40.9,42.63C40.9,42.63 40.85,42.46 40.78,42.46C40.78,42.39 40.7,42.33 40.62,42.46C40.54,42.59 40.62,42.46 40.68,42.46C40.676,42.486 40.676,42.514 40.68,42.54C40.68,42.61 40.68,42.64 40.81,42.64C40.94,42.64 40.81,42.64 40.81,42.64C40.81,42.64 40.62,42.64 40.62,42.7C40.62,42.76 40.57,42.8 40.62,42.85C40.67,42.9 40.62,42.78 40.62,42.77C40.62,42.76 40.62,42.77 40.69,42.77C40.76,42.77 40.69,42.77 40.69,42.77C40.69,42.77 40.62,42.93 40.69,42.95C40.76,42.97 40.69,42.95 40.69,42.95C40.69,42.95 40.47,43.07 40.48,42.95C40.452,42.98 40.437,43.019 40.437,43.06C40.437,43.149 40.511,43.223 40.6,43.223C40.646,43.223 40.689,43.204 40.72,43.17C40.751,43.136 40.72,43.23 40.72,43.23C40.719,43.278 40.753,43.32 40.8,43.33C40.847,43.34 40.8,43.26 40.8,43.26C40.902,43.395 41.027,43.51 41.17,43.6C41.313,43.69 41.27,43.6 41.29,43.54C41.31,43.48 41.29,43.54 41.34,43.6C41.39,43.66 41.42,43.83 41.4,43.83C41.244,43.811 41.086,43.811 40.93,43.83C40.82,43.89 40.58,43.98 40.5,43.83C40.42,43.68 40.5,43.76 40.5,43.71C40.482,43.674 40.449,43.648 40.41,43.64L40.35,43.64C40.295,43.606 40.225,43.606 40.17,43.64C40.217,43.649 40.257,43.678 40.28,43.72C40.303,43.762 40.28,43.72 40.28,43.72C40.28,43.72 40.28,43.81 40.44,43.87C40.413,43.888 40.377,43.888 40.35,43.87C40.29,43.87 40.27,43.75 40.2,43.79C40.13,43.79 40.02,43.88 40.07,43.97C40.12,44.06 40.07,43.89 40.16,43.89C40.25,43.89 40.16,43.89 40.16,43.94C40.16,43.99 40.16,44.09 40.39,43.94C40.39,43.94 40.24,44.08 40.32,44.14C40.319,44.147 40.319,44.153 40.319,44.16C40.319,44.237 40.382,44.3 40.459,44.3C40.459,44.3 40.46,44.3 40.46,44.3C40.421,44.26 40.399,44.206 40.4,44.15C40.48,44.15 40.45,44.02 40.5,43.99C40.55,43.96 40.5,43.99 40.5,43.99C40.5,43.99 40.5,44.12 40.62,44.11C40.693,44.105 40.75,44.043 40.75,43.97C40.773,43.999 40.773,44.041 40.75,44.07C40.781,44.055 40.805,44.031 40.82,44C40.853,44.052 40.853,44.118 40.82,44.17C40.895,44.142 40.952,44.078 40.97,44C40.973,44.02 40.973,44.04 40.97,44.06C40.967,44.08 40.97,44.06 40.97,44.06C41.03,44.087 41.1,44.087 41.16,44.06C41.153,44.093 41.153,44.127 41.16,44.16C41.167,44.193 41.16,44.16 41.16,44.16C41.16,44.16 41.16,44.26 41.22,44.32C41.22,44.07 41.53,44.2 41.69,44.1C41.679,44.135 41.654,44.165 41.62,44.18C41.697,44.179 41.772,44.15 41.83,44.1L42.08,43.98L42.08,43.9C42.106,43.908 42.134,43.908 42.16,43.9C42.32,43.9 42.31,43.78 42.37,43.79C43.29,43.91 42.76,43.4 43.83,43.5C43.88,43.5 43.9,43.5 43.95,43.44C44,43.38 43.9,43.72 43.95,43.74C44.018,43.748 44.083,43.772 44.14,43.81C44.09,43.801 44.04,43.801 43.99,43.81C43.82,43.92 43.82,43.56 43.64,43.63C43.57,43.63 43.47,43.71 43.49,43.79C43.519,43.75 43.562,43.722 43.61,43.71L43.61,43.76L43.67,43.76L43.74,43.76C43.81,43.76 43.74,43.76 43.74,43.76C43.74,43.76 43.52,43.76 43.56,43.91L43.56,43.97C43.56,43.98 43.56,44.08 43.69,44.05C43.82,44.02 43.69,44.05 43.69,43.98C43.69,43.91 43.69,43.98 43.69,43.98L43.69,44.03C43.69,44.03 43.77,44.17 43.87,44.1C43.97,44.03 43.79,44.1 43.78,44.05C43.77,44 43.78,44.05 43.78,43.98C43.78,43.91 43.78,43.98 43.78,43.98C43.806,44.031 43.865,44.056 43.92,44.04C44.04,44.04 43.92,43.9 44.03,43.87C44.14,43.84 44.03,43.87 44.1,43.87L44.36,43.87C44.392,43.77 44.356,43.66 44.27,43.6C44.21,43.6 44.27,43.5 44.27,43.41C44.379,43.463 44.498,43.494 44.62,43.5C44.772,43.512 44.923,43.474 45.05,43.39C45.15,43.355 45.26,43.355 45.36,43.39C45.395,43.395 45.42,43.425 45.42,43.46L45.42,43.66C45.42,43.71 45.28,43.66 45.21,43.66C45.186,43.643 45.154,43.643 45.13,43.66C45.055,43.665 44.995,43.725 44.99,43.8C45.023,43.769 45.065,43.748 45.11,43.74C45.111,43.794 45.156,43.839 45.21,43.839C45.236,43.839 45.261,43.828 45.28,43.81C45.299,43.792 45.13,43.94 45.21,43.97C45.213,44.022 45.249,44.067 45.3,44.08C45.351,44.093 45.3,44.08 45.3,43.97C45.36,43.97 45.3,43.86 45.39,43.82L45.39,43.99C45.39,44.01 45.46,44.07 45.54,43.99L45.47,43.99L45.47,43.93C45.47,43.79 45.4,43.79 45.4,43.74C45.4,43.69 45.53,43.74 45.53,43.57C45.531,43.533 45.506,43.499 45.47,43.49C45.434,43.481 45.55,43.49 45.57,43.49C45.59,43.49 45.5,43.41 45.48,43.35C45.46,43.29 45.48,43.35 45.48,43.35C45.509,43.304 45.509,43.246 45.48,43.2C45.451,43.154 45.34,43.3 45.33,43.2C45.32,43.1 45.33,43.12 45.22,43.14C45.017,43.159 44.813,43.159 44.61,43.14C44.93,43.14 45.52,43.06 45.52,42.84" style="fill:white;fill-rule:nonzero;"/>
        </g>
        <g transform="matrix(1,0,0,1,-12,0)">
            <path d="M50,47C50,47 50,46.93 50.06,46.93C50.079,46.949 50.111,46.949 50.13,46.93C50.149,46.911 50.13,46.87 50.07,46.84C50.01,46.81 50.13,46.84 50.07,46.84L50,46.84L50.18,46.91L50.18,47.02L50.18,46.96C50.18,46.95 50.18,46.96 50.18,47.03C50.18,47.1 50.1,47.03 50.08,47.03C50.06,47.03 50.08,47.09 50.08,47.12L50.08,47.21C50.061,47.263 50.005,47.293 49.95,47.28C49.882,47.268 49.833,47.209 49.833,47.14C49.833,47.062 49.897,46.998 49.975,46.998C49.983,46.998 49.992,46.999 50,47M50.21,46.55C50.21,46.61 50.12,46.65 50.07,46.55C50.02,46.45 50.07,46.49 50.02,46.4C50.079,46.441 50.143,46.475 50.21,46.5M50.34,46.57C50.409,46.609 50.483,46.64 50.56,46.66C50.46,46.66 50.49,46.72 50.43,46.72C50.37,46.72 50.34,46.63 50.34,46.57M54.34,47.57C54.39,47.538 54.414,47.478 54.4,47.42C54.4,47.47 54.25,47.53 54.25,47.42C54.25,47.31 54.25,47.35 54.15,47.37C53.93,47.39 53.71,47.39 53.49,47.37C53.27,47.35 53.49,47.37 53.49,47.37C53.81,47.37 54.4,47.3 54.4,47.09C54.4,46.88 54.21,46.81 53.65,46.81C53.09,46.81 51.37,47.01 51.37,46.7C51.37,46.39 51.95,46.58 52.37,46.6C52.405,46.636 52.45,46.661 52.5,46.67C53.21,46.88 54.04,46.34 54.5,46.46C53.93,46.27 53.58,46.61 53.03,46.46C53.35,46.46 53.69,46.39 53.7,46.3C53.46,46.46 52.76,46.19 52.46,46.38C51.94,46.38 51.29,46.32 51.29,46.63C51.29,47.19 53.29,46.87 53.71,46.87C54.13,46.87 54.29,46.87 54.29,47C54.29,47.13 53.82,47.17 53.56,47.17C52.563,47.053 51.557,47.053 50.56,47.17C50.56,47.04 50.78,46.86 50.69,46.76C50.754,46.741 50.801,46.686 50.81,46.62C50.774,46.58 50.724,46.554 50.67,46.55C50.616,46.546 50.67,46.48 50.67,46.46C50.676,46.427 50.676,46.393 50.67,46.36C50.623,46.315 50.569,46.278 50.51,46.25C50.454,46.238 50.396,46.238 50.34,46.25L50.14,46.25C50.108,46.217 50.066,46.196 50.02,46.19C49.99,46.253 49.99,46.327 50.02,46.39C49.95,46.39 49.88,46.56 49.82,46.54C49.76,46.52 49.82,46.61 49.88,46.62C49.94,46.63 49.8,46.83 49.74,46.84C49.68,46.85 49.81,46.92 49.83,46.92C49.825,46.977 49.825,47.033 49.83,47.09L49.42,47.09C49.32,47.09 49.25,46.94 49.1,46.86C49.017,46.811 48.973,46.715 48.99,46.62L48.99,46.35C48.994,46.32 48.994,46.29 48.99,46.26C48.962,46.203 48.903,46.168 48.84,46.17C48.872,46.19 48.894,46.223 48.9,46.26L48.85,46.32C48.832,46.347 48.832,46.383 48.85,46.41L48.85,46.48C48.85,46.48 48.85,46.31 48.74,46.3C48.74,46.24 48.66,46.18 48.58,46.3C48.602,46.288 48.628,46.288 48.65,46.3C48.647,46.323 48.647,46.347 48.65,46.37C48.65,46.44 48.65,46.47 48.77,46.47C48.89,46.47 48.77,46.47 48.77,46.47C48.65,46.42 48.6,46.47 48.59,46.53C48.58,46.59 48.59,46.53 48.59,46.53C48.59,46.53 48.53,46.63 48.59,46.69C48.572,46.663 48.572,46.627 48.59,46.6C48.608,46.573 48.59,46.6 48.66,46.6C48.56,46.69 48.58,46.76 48.66,46.79C48.74,46.82 48.66,46.79 48.66,46.79C48.66,46.95 48.44,46.91 48.46,46.79C48.34,46.97 48.54,47.11 48.7,47.02C48.86,46.93 48.7,47.08 48.76,47.08C48.82,47.08 48.76,47.08 48.76,47.08C48.76,47.08 48.76,47.18 48.84,47.18C48.92,47.18 48.84,47.12 48.84,47.12C48.84,47.12 48.98,47.36 49.21,47.48C49.21,47.48 49.29,47.48 49.34,47.39C49.352,47.435 49.381,47.474 49.42,47.5C49.42,47.6 49.54,47.72 49.51,47.72C49.404,47.705 49.296,47.705 49.19,47.72C49.09,47.78 48.83,47.87 48.75,47.77C48.754,47.727 48.754,47.683 48.75,47.64C48.734,47.603 48.7,47.577 48.66,47.57C48.607,47.53 48.533,47.53 48.48,47.57C48.522,47.578 48.558,47.604 48.58,47.64L48.58,47.69C48.58,47.69 48.58,47.78 48.74,47.84C48.717,47.86 48.683,47.86 48.66,47.84C48.59,47.84 48.58,47.73 48.5,47.77C48.484,47.775 48.466,47.775 48.45,47.77C48.38,47.77 48.27,47.85 48.31,47.94C48.328,47.902 48.36,47.873 48.4,47.86C48.402,47.877 48.402,47.893 48.4,47.91C48.4,48 48.45,48.06 48.62,47.91C48.79,47.76 48.62,47.91 48.62,47.91C48.62,47.91 48.47,48.05 48.56,48.11C48.559,48.117 48.559,48.123 48.559,48.13C48.559,48.207 48.622,48.27 48.699,48.27C48.699,48.27 48.7,48.27 48.7,48.27C48.662,48.233 48.641,48.183 48.64,48.13L48.7,48.13C48.78,48.13 48.7,48 48.79,47.97C48.88,47.94 48.79,47.97 48.79,47.97C48.79,47.97 48.79,48.1 48.91,48.09C48.915,48.091 48.92,48.091 48.924,48.091C48.985,48.091 49.034,48.041 49.034,47.981C49.034,47.97 49.033,47.96 49.03,47.95C49.068,47.968 49.089,48.009 49.08,48.05C49.111,48.035 49.135,48.011 49.15,47.98C49.18,48.033 49.18,48.097 49.15,48.15C49.227,48.125 49.285,48.06 49.3,47.98L49.3,48.04C49.365,48.061 49.435,48.061 49.5,48.04C49.484,48.071 49.484,48.109 49.5,48.14C49.516,48.171 49.5,48.14 49.5,48.14C49.5,48.14 49.5,48.23 49.56,48.3C49.56,48.05 49.71,48.14 49.86,48.05C50.01,47.96 49.86,48.05 49.86,48.05C49.849,48.085 49.824,48.115 49.79,48.13C49.85,48.13 50.08,48.03 50.08,47.94C50.08,47.85 50.16,47.94 50.24,47.94C50.32,47.94 50.37,47.82 50.44,47.82C51.35,47.95 50.83,47.43 51.9,47.54C51.96,47.54 51.98,47.48 52.02,47.44C52.06,47.4 52.02,47.75 52.08,47.77C52.145,47.784 52.206,47.811 52.26,47.85C52.207,47.839 52.153,47.839 52.1,47.85C51.94,47.96 51.93,47.6 51.75,47.66L51.7,47.66C51.618,47.67 51.554,47.738 51.55,47.82C51.583,47.787 51.625,47.762 51.67,47.75C51.715,47.738 51.67,47.75 51.73,47.75L51.8,47.75C51.8,47.75 51.58,47.75 51.62,47.89L51.62,47.96C51.62,48.01 51.62,48.06 51.76,48.04C51.9,48.02 51.7,48.04 51.71,47.97C51.72,47.9 51.71,47.97 51.71,47.97C51.707,47.99 51.707,48.01 51.71,48.03C51.71,48.085 51.755,48.13 51.81,48.13C51.841,48.13 51.871,48.115 51.89,48.09C51.909,48.065 51.81,48.09 51.8,48.09C51.79,48.09 51.8,48.09 51.8,48.02C51.8,47.95 51.8,48.02 51.8,48.02C51.84,48.053 51.9,48.053 51.94,48.02C52.06,48.02 51.94,47.88 52.06,47.86C52.083,47.855 52.107,47.855 52.13,47.86L52.38,47.86C52.412,47.76 52.376,47.65 52.29,47.59C52.23,47.59 52.29,47.49 52.24,47.4C52.348,47.458 52.468,47.489 52.59,47.49C52.751,47.505 52.913,47.467 53.05,47.38C53.15,47.343 53.26,47.343 53.36,47.38C53.46,47.417 53.42,47.38 53.36,47.45C53.3,47.52 53.36,47.59 53.36,47.65C53.36,47.71 53.23,47.65 53.15,47.65C53.125,47.639 53.095,47.639 53.07,47.65C52.997,47.663 52.938,47.718 52.92,47.79C52.958,47.766 52.998,47.746 53.04,47.73C53.04,47.731 53.04,47.732 53.04,47.734C53.04,47.783 53.081,47.824 53.13,47.824C53.157,47.824 53.183,47.811 53.2,47.79C53.217,47.769 53.2,47.79 53.2,47.79C53.2,47.79 53.04,47.92 53.12,47.95C53.118,48 53.146,48.047 53.19,48.07C53.234,48.093 53.19,48.07 53.19,47.96C53.25,47.96 53.19,47.85 53.29,47.81L53.29,47.98C53.29,48 53.36,48.07 53.44,47.98C53.412,47.966 53.388,47.945 53.37,47.92C53.375,47.9 53.375,47.88 53.37,47.86C53.42,47.72 53.31,47.72 53.37,47.67C53.43,47.62 53.5,47.67 53.51,47.5C53.52,47.33 53.51,47.44 53.51,47.43C53.51,47.42 53.59,47.43 53.62,47.43C53.65,47.43 53.55,47.35 53.54,47.29" style="fill:white;fill-rule:nonzero;"/>
        </g>
        <g transform="matrix(1,0,0,1,-12,0)">
            <path d="M50.32,49.19C50.26,49.19 50.24,49.11 50.25,49.05C50.318,49.085 50.388,49.115 50.46,49.14L50.32,49.14M50.23,49.26L50.23,49.21L50.23,49.26C50.23,49.31 50.15,49.26 50.13,49.26C50.11,49.26 50.13,49.26 50.13,49.35C50.13,49.44 50.13,49.35 50.13,49.42C50.125,49.465 50.086,49.5 50.041,49.5C50.026,49.5 50.013,49.496 50,49.49C49.967,49.45 49.967,49.39 50,49.35C50.033,49.31 50,49.29 50,49.29C50.019,49.309 50.051,49.309 50.07,49.29C50.07,49.24 50.07,49.23 50.01,49.2C49.95,49.17 50.07,49.2 50.01,49.2L49.94,49.2C49.93,49.2 49.94,49.2 49.94,49.2L50.11,49.28L50.11,49.33M50.12,49C50.12,49 50.04,49.08 49.99,49C49.94,48.92 49.99,48.94 49.94,48.85L50.12,48.96M51.86,48.96C51.86,48.96 51.86,49.03 51.98,49.05C52.67,49.25 53.45,48.74 53.87,48.86C53.33,48.66 52.99,48.99 52.47,48.86C52.77,48.86 53.09,48.8 53.11,48.72C52.87,48.87 52.2,48.62 51.93,48.79C51.55,48.79 51.25,48.79 51.25,49.03C51.25,49.57 52.67,49.25 53.12,49.25C53.57,49.25 53.51,49.25 53.51,49.38C53.51,49.51 53,49.54 52.75,49.54C52.001,49.445 51.243,49.425 50.49,49.48C50.55,49.37 50.68,49.22 50.61,49.13C50.665,49.108 50.703,49.058 50.71,49C50.677,48.962 50.63,48.937 50.58,48.93C50.53,48.923 50.58,48.87 50.58,48.84L50.58,48.75C50.535,48.709 50.485,48.676 50.43,48.65C50.377,48.643 50.323,48.643 50.27,48.65C50.217,48.657 50.19,48.65 50.17,48.65C50.15,48.65 50.09,48.65 50.09,48.7C50.057,48.669 50.015,48.648 49.97,48.64C49.944,48.701 49.944,48.769 49.97,48.83C49.91,48.83 49.85,49 49.79,48.98C49.794,49.011 49.819,49.036 49.85,49.04C49.79,49.14 49.77,49.26 49.71,49.26C49.725,49.285 49.745,49.305 49.77,49.32C49.762,49.386 49.762,49.454 49.77,49.52L49.71,49.52C49.61,49.518 49.512,49.487 49.43,49.43C49.33,49.43 49.33,49.32 49.33,49.21C49.335,49.123 49.335,49.037 49.33,48.95C49.333,48.923 49.333,48.897 49.33,48.87C49.302,48.813 49.243,48.778 49.18,48.78C49.216,48.798 49.242,48.831 49.25,48.87C49.227,48.899 49.227,48.941 49.25,48.97C49.273,48.999 49.25,48.97 49.25,48.97C49.25,48.9 49.25,48.8 49.14,48.8C49.14,48.73 49.06,48.68 48.98,48.8L49.05,48.8L49.05,48.87C49.05,48.94 49.1,48.97 49.17,48.97C49.24,48.97 49.17,48.97 49.17,48.97C49.17,48.97 49,48.97 49,49.03C49,49.09 48.94,49.12 49,49.17C49.06,49.22 49,49.11 49,49.1C49,49.09 49,49.1 49.07,49.1C49.14,49.1 49.07,49.1 49.07,49.1C48.98,49.18 49,49.27 49.07,49.28C49.14,49.29 49.07,49.28 49.07,49.28C49.07,49.28 48.86,49.4 48.87,49.28C48.76,49.45 48.96,49.58 49.1,49.49C49.24,49.4 49.1,49.55 49.1,49.55C49.107,49.592 49.133,49.629 49.17,49.65C49.207,49.671 49.17,49.58 49.17,49.58C49.17,49.58 49.17,49.52 49.38,49.58C49.395,49.61 49.42,49.635 49.45,49.65L49.59,49.65L49.59,49.9C49.488,49.881 49.382,49.881 49.28,49.9C49.18,49.95 48.94,50.05 48.86,49.9C48.862,49.86 48.862,49.82 48.86,49.78C48.848,49.75 48.822,49.727 48.79,49.72L48.73,49.72C48.678,49.687 48.612,49.687 48.56,49.72C48.599,49.73 48.631,49.755 48.65,49.79C48.669,49.825 48.65,49.87 48.79,49.92C48.93,49.97 48.79,49.92 48.79,49.92C48.763,49.938 48.727,49.938 48.7,49.92C48.65,49.92 48.64,49.8 48.57,49.85L48.51,49.85C48.44,49.85 48.34,49.94 48.38,50.01C48.399,49.975 48.431,49.95 48.47,49.94C48.47,50.02 48.52,50.08 48.68,49.94C48.84,49.8 48.68,49.94 48.68,49.94C48.68,49.94 48.53,50.08 48.61,50.14C48.61,50.219 48.672,50.285 48.75,50.29C48.708,50.257 48.688,50.202 48.7,50.15L48.75,50.15C48.82,50.15 48.75,50.02 48.83,49.99C48.91,49.96 48.83,49.99 48.83,49.99C48.83,49.99 48.83,50.12 48.95,50.11C49.018,50.105 49.07,50.048 49.07,49.98C49.07,49.977 49.07,49.973 49.07,49.97C49.09,50 49.09,50.04 49.07,50.07C49.101,50.055 49.125,50.031 49.14,50C49.178,50.05 49.178,50.12 49.14,50.17C49.217,50.145 49.275,50.08 49.29,50L49.29,50.05C49.349,50.066 49.411,50.066 49.47,50.05C49.529,50.034 49.47,50.05 49.47,50.05C49.459,50.082 49.459,50.118 49.47,50.15C49.481,50.182 49.47,50.15 49.47,50.15L49.47,50.29C49.47,50.06 49.69,50.12 49.83,50.02C49.97,49.92 49.83,50.02 49.83,50.02C49.816,50.051 49.795,50.078 49.77,50.1C49.92,50.2 50.08,49.98 50.13,49.86C50.145,49.881 50.145,49.909 50.13,49.93C50.28,49.93 50.26,49.81 50.33,49.82C50.79,49.82 50.43,49.43 51.18,49.56C51.246,49.55 51.308,49.522 51.36,49.48L51.36,49.8C51.36,49.82 51.51,49.8 51.54,49.87C51.57,49.94 51.54,49.87 51.54,49.87C51.494,49.861 51.446,49.861 51.4,49.87C51.25,49.97 51.24,49.63 51.07,49.69C51.07,49.69 50.9,49.77 50.92,49.84C50.949,49.808 50.988,49.787 51.03,49.78C51.072,49.773 51.03,49.78 51.03,49.78C51.03,49.78 51.03,49.83 51.1,49.83L51.16,49.83C51.16,49.83 50.96,49.83 50.99,49.97C50.99,49.97 50.99,50.09 51.12,50.05C51.25,50.01 51.07,50.05 51.07,49.99L51.12,49.99C51.116,50.01 51.116,50.03 51.12,50.05C51.12,50.11 51.2,50.18 51.3,50.12C51.4,50.06 51.21,50.12 51.2,50.07L51.25,50.07L51.25,50L51.32,50C51.357,50.032 51.413,50.032 51.45,50C51.57,50 51.45,49.86 51.56,49.85L52.24,49.85C52.273,49.755 52.24,49.65 52.16,49.59C52.1,49.59 52.16,49.49 52.16,49.41C52.261,49.465 52.375,49.492 52.49,49.49C52.656,49.503 52.823,49.468 52.97,49.39C53.068,49.359 53.172,49.359 53.27,49.39C53.368,49.421 53.33,49.39 53.27,49.46C53.21,49.53 53.27,49.59 53.21,49.65C53.15,49.71 53.08,49.65 53.01,49.65C52.985,49.636 52.955,49.636 52.93,49.65C52.86,49.65 52.77,49.72 52.77,49.79C52.802,49.757 52.844,49.736 52.89,49.73C52.89,49.81 52.97,49.84 53.03,49.73C53.09,49.62 53.03,49.73 53.03,49.73C53.03,49.73 52.86,49.85 52.93,49.89C53,49.93 52.93,50 52.93,50L52.93,49.9C52.99,49.9 52.99,49.79 53.06,49.76C53.06,49.83 53,49.9 53.06,49.92C53.12,49.94 53.11,50 53.2,49.92C53.29,49.84 53.14,49.92 53.14,49.92L53.2,49.86C53.27,49.72 53.2,49.72 53.2,49.67C53.2,49.62 53.33,49.67 53.37,49.52C53.392,49.494 53.392,49.456 53.37,49.43C53.348,49.404 53.44,49.43 53.48,49.43C53.52,49.43 53.48,49.36 53.48,49.31C53.53,49.286 53.561,49.235 53.56,49.18C53.559,49.125 53.4,49.27 53.41,49.18C53.42,49.09 53.41,49.11 53.32,49.18C53.23,49.25 52.92,49.18 52.62,49.13C52.92,49.13 53.55,49.06 53.55,48.86C53.55,48.66 53.55,48.59 52.99,48.59C52.43,48.59 51.25,48.79 51.25,48.49C51.25,48.19 51.48,48.36 51.77,48.37" style="fill:white;fill-rule:nonzero;"/>
        </g>
        <g transform="matrix(1,0,0,1,-12,0)">
            <path d="M49.69,51.9C49.69,51.9 49.69,51.84 49.75,51.84C49.772,51.851 49.798,51.851 49.82,51.84C49.842,51.829 49.82,51.78 49.76,51.76C49.7,51.74 49.82,51.76 49.76,51.76L49.7,51.76L49.7,51.71L49.75,51.71L49.9,51.79L49.9,51.85C49.9,51.91 49.9,51.85 49.85,51.79C49.8,51.73 49.85,51.79 49.85,51.85C49.85,51.91 49.77,51.85 49.75,51.85C49.733,51.874 49.733,51.906 49.75,51.93C49.767,51.954 49.75,51.93 49.75,52C49.75,52.07 49.7,52.1 49.64,52.06C49.61,52.026 49.61,51.974 49.64,51.94M49.84,51.53C49.84,51.53 49.75,51.61 49.71,51.53C49.67,51.45 49.71,51.47 49.71,51.4C49.761,51.44 49.819,51.47 49.88,51.49M50,51.55C50.061,51.59 50.129,51.617 50.2,51.63C50.1,51.63 50.13,51.69 50.07,51.63C50.01,51.57 50,51.6 50,51.55M51.28,51.49C51.307,51.54 51.354,51.577 51.41,51.59C52.09,51.78 52.87,51.27 53.3,51.38C52.75,51.19 52.41,51.52 51.89,51.38C52.2,51.38 52.52,51.32 52.53,51.24C52.3,51.39 51.63,51.13 51.35,51.31C51.14,51.31 50.96,51.47 50.96,51.62C50.96,52.08 52.71,51.72 52.71,51.87C52.71,52.02 52.37,52.1 51.91,52.1C51.341,52.003 50.759,52.003 50.19,52.1C50.25,51.98 50.41,51.78 50.33,51.7C50.389,51.679 50.434,51.63 50.45,51.57C50.411,51.542 50.367,51.522 50.32,51.51C50.273,51.498 50.32,51.45 50.32,51.42L50.32,51.34C50.278,51.296 50.227,51.262 50.17,51.24C50.126,51.217 50.079,51.201 50.03,51.19L49.85,51.19C49.814,51.166 49.773,51.149 49.73,51.14C49.705,51.201 49.705,51.269 49.73,51.33C49.67,51.33 49.6,51.49 49.54,51.46C49.48,51.43 49.54,51.53 49.6,51.53C49.66,51.53 49.53,51.73 49.47,51.73L49.54,51.8C49.51,51.938 49.51,52.082 49.54,52.22C49.43,52.11 49.27,51.85 49.16,51.8C49.084,51.755 49.044,51.667 49.06,51.58C49.065,51.5 49.065,51.42 49.06,51.34C49.063,51.313 49.063,51.287 49.06,51.26C49.06,51.2 48.97,51.17 48.93,51.17C48.961,51.19 48.979,51.224 48.98,51.26C48.981,51.296 48.98,51.26 48.98,51.34L48.98,51.4C48.98,51.4 48.98,51.25 48.88,51.24C48.88,51.18 48.81,51.13 48.73,51.24C48.749,51.231 48.771,51.231 48.79,51.24C48.787,51.263 48.787,51.287 48.79,51.31C48.79,51.37 48.84,51.4 48.91,51.4C48.98,51.4 48.91,51.4 48.91,51.4L48.74,51.4C48.69,51.4 48.68,51.48 48.74,51.53C48.8,51.58 48.74,51.47 48.74,51.46C48.74,51.45 48.74,51.46 48.81,51.46C48.73,51.54 48.75,51.61 48.81,51.63C48.87,51.65 48.81,51.63 48.81,51.63C48.81,51.63 48.61,51.74 48.63,51.63C48.52,51.79 48.71,51.92 48.84,51.84C48.97,51.76 48.84,51.84 48.84,51.84C48.84,51.843 48.839,51.847 48.839,51.851C48.839,51.891 48.87,51.925 48.91,51.93C48.95,51.935 48.91,51.87 48.91,51.87C48.91,51.87 48.91,52.09 49.11,52.22C49.146,52.326 49.248,52.396 49.36,52.39C49.36,52.47 49.45,52.55 49.43,52.55C49.317,52.535 49.203,52.535 49.09,52.55C49.138,52.705 49.104,52.875 49,53C48.951,53.031 48.889,53.031 48.84,53C48.791,52.969 48.84,52.94 48.84,52.88C48.84,52.82 48.84,52.82 48.77,52.82L48.71,52.82C48.661,52.791 48.599,52.791 48.55,52.82C48.588,52.825 48.621,52.847 48.64,52.88L48.64,52.93C48.64,52.93 48.64,53.01 48.77,53.06C48.9,53.11 48.77,53.06 48.77,53.06C48.742,53.074 48.708,53.074 48.68,53.06C48.63,53.01 48.62,52.94 48.55,52.99C48.49,52.99 48.39,53.07 48.44,53.15C48.45,53.111 48.481,53.08 48.52,53.07C48.519,53.087 48.519,53.103 48.52,53.12C48.52,53.2 48.57,53.26 48.72,53.12C48.87,52.98 48.72,53.12 48.72,53.12C48.72,53.12 48.58,53.24 48.66,53.29C48.66,53.293 48.66,53.297 48.66,53.3C48.66,53.374 48.717,53.435 48.79,53.44C48.765,53.4 48.765,53.35 48.79,53.31C48.815,53.27 48.79,53.31 48.79,53.31C48.79,53.31 48.79,53.19 48.87,53.16C48.95,53.13 48.87,53.16 48.87,53.16C48.87,53.16 48.87,53.28 48.98,53.28C48.995,53.256 49.002,53.228 49,53.2C49.034,53.217 49.054,53.253 49.05,53.29C49.079,53.281 49.101,53.259 49.11,53.23C49.142,53.275 49.142,53.335 49.11,53.38C49.18,53.361 49.236,53.308 49.26,53.24C49.265,53.256 49.265,53.274 49.26,53.29C49.319,53.304 49.381,53.304 49.44,53.29C49.499,53.276 49.44,53.29 49.44,53.29C49.434,53.316 49.434,53.344 49.44,53.37C49.446,53.396 49.44,53.37 49.44,53.37L49.44,53.5C49.44,53.28 49.58,53.37 49.72,53.28C49.86,53.19 49.72,53.28 49.72,53.28C49.709,53.31 49.688,53.335 49.66,53.35C49.72,53.35 49.87,53.28 49.87,53.2C49.939,53.083 49.983,52.954 50,52.82L50.06,52.82C50.25,52.82 50.33,52.67 50.52,52.66C50.477,52.743 50.456,52.836 50.46,52.93C50.46,53.03 50.59,53.14 50.63,53.17C50.67,53.2 50.63,53.17 50.63,53.17L50.48,53.17C50.33,53.27 50.33,52.95 50.17,53.01C50.1,53.01 50.01,53.09 50.03,53.15C50.05,53.21 50.03,53.15 50.13,53.15C50.129,53.154 50.129,53.157 50.129,53.161C50.129,53.189 50.151,53.211 50.179,53.211C50.183,53.211 50.186,53.211 50.19,53.21C50.194,53.209 50.19,53.21 50.25,53.21C50.31,53.21 50.25,53.21 50.25,53.21C50.25,53.21 50.05,53.21 50.08,53.35C50.11,53.49 50.08,53.44 50.21,53.42C50.34,53.4 50.15,53.42 50.21,53.35C50.27,53.28 50.21,53.35 50.21,53.35L50.21,53.4C50.21,53.45 50.29,53.52 50.38,53.46C50.47,53.4 50.3,53.46 50.3,53.46C50.306,53.44 50.306,53.42 50.3,53.4C50.294,53.38 50.3,53.4 50.3,53.4L50.35,53.4C50.385,53.427 50.435,53.427 50.47,53.4C50.57,53.4 50.47,53.27 50.57,53.25L50.81,53.25C50.834,53.161 50.802,53.067 50.73,53.01C50.658,52.953 50.81,52.65 50.55,52.49C50.67,52.49 51.06,52.57 51.13,52.49C51.225,52.509 51.314,52.55 51.39,52.61C51.466,52.67 51.39,52.67 51.39,52.68C51.39,52.69 51.3,52.78 51.24,52.81C51.18,52.84 51.17,52.72 51.14,52.71C51.11,52.7 51.06,52.71 51.05,52.71C50.989,52.687 50.921,52.713 50.89,52.77C50.929,52.759 50.971,52.759 51.01,52.77C51.049,52.781 51.01,52.77 51.01,52.83C51.01,52.89 51.01,52.83 51.01,52.83C51.01,52.83 50.84,52.83 50.87,52.83C50.9,52.83 50.87,52.83 50.87,52.83C50.837,52.87 50.837,52.93 50.87,52.97C50.903,53.01 50.87,52.97 50.94,52.9C51.01,52.83 50.94,52.9 50.94,52.9C50.94,52.9 51.03,52.84 51.09,52.9C51.15,52.96 51.09,52.9 51.09,52.9C51.09,52.9 50.98,52.96 51,53.01C51.02,53.06 51,53.01 51,53.01C51,53.01 51,53.11 51.07,53.13C51.14,53.15 51.07,53.08 51.07,53.06L51.13,53.06C51.24,52.99 51.13,52.92 51.21,52.89C51.29,52.86 51.31,52.96 51.4,52.89C51.416,52.862 51.416,52.828 51.4,52.8C51.384,52.772 51.4,52.8 51.4,52.8C51.4,52.8 51.4,52.86 51.49,52.8C51.58,52.74 51.49,52.71 51.49,52.67C51.49,52.63 51.49,52.67 51.49,52.67C51.49,52.67 51.57,52.67 51.62,52.6C51.67,52.53 51.44,52.53 51.51,52.5C51.58,52.47 51.66,52.39 51.61,52.33C51.56,52.27 51.32,52.2 51.31,52.06L51.49,52.06C52.08,52.06 52.49,51.9 52.44,51.72C52.44,51.31 50.65,51.72 50.65,51.45C50.65,51.37 50.77,51.3 50.9,51.25" style="fill:white;fill-rule:nonzero;"/>
        </g>
        <g transform="matrix(1,0,0,1,-12,0)">
            <path d="M22.59,20.61C22.59,20.369 22.391,20.17 22.15,20.17C21.918,20.175 21.73,20.368 21.73,20.6C21.73,20.603 21.73,20.607 21.73,20.61C21.73,20.84 21.92,21.03 22.15,21.03C22.153,21.03 22.157,21.03 22.16,21.03C22.392,21.03 22.585,20.842 22.59,20.61" style="fill:white;fill-rule:nonzero;"/>
        </g>
        <g transform="matrix(1,0,0,1,-12,0)">
            <path d="M22.44,19.46C22.44,19.224 22.246,19.03 22.01,19.03C21.774,19.03 21.58,19.224 21.58,19.46C21.58,19.463 21.58,19.467 21.58,19.47C21.58,19.7 21.769,19.89 22,19.89L22.01,19.89C22.246,19.89 22.44,19.696 22.44,19.46C22.44,19.46 22.44,19.46 22.44,19.46" style="fill:white;fill-rule:nonzero;"/>
        </g>
        <g transform="matrix(1,0,0,1,-12,0)">
            <path d="M22.68,19C22.683,19 22.687,19 22.69,19C22.92,19 23.11,18.811 23.11,18.58C23.11,18.58 23.11,18.58 23.11,18.58C23.11,18.342 22.918,18.145 22.68,18.14C22.442,18.145 22.25,18.342 22.25,18.58C22.255,18.812 22.448,19 22.68,19" style="fill:white;fill-rule:nonzero;"/>
        </g>
        <g transform="matrix(1,0,0,1,-12,0)">
            <path d="M23.82,18.88C24.056,18.88 24.25,18.686 24.25,18.45C24.25,18.214 24.056,18.02 23.82,18.02C23.584,18.02 23.39,18.214 23.39,18.45C23.39,18.686 23.584,18.88 23.82,18.88" style="fill:white;fill-rule:nonzero;"/>
        </g>
        <g transform="matrix(1,0,0,1,-12,0)">
            <path d="M28.71,18.08C28.791,18.161 28.901,18.207 29.015,18.207C29.129,18.207 29.239,18.161 29.32,18.08C29.401,17.999 29.446,17.889 29.446,17.775C29.446,17.538 29.252,17.344 29.015,17.344C28.901,17.344 28.791,17.389 28.71,17.47C28.623,17.548 28.574,17.659 28.574,17.775C28.574,17.891 28.623,18.002 28.71,18.08" style="fill:white;fill-rule:nonzero;"/>
        </g>
        <g transform="matrix(1,0,0,1,-12,0)">
            <path d="M28.61,17.17C28.69,17.089 28.735,16.98 28.735,16.867C28.735,16.631 28.541,16.437 28.305,16.437C28.069,16.437 27.875,16.631 27.875,16.867C27.875,16.98 27.92,17.089 28,17.17C28.081,17.251 28.191,17.297 28.305,17.297C28.419,17.297 28.529,17.251 28.61,17.17" style="fill:white;fill-rule:nonzero;"/>
        </g>
        <g transform="matrix(1,0,0,1,-12,0)">
            <path d="M27.47,17C27.551,16.919 27.596,16.809 27.596,16.695C27.596,16.458 27.402,16.264 27.165,16.264C27.051,16.264 26.941,16.309 26.86,16.39C26.702,16.561 26.702,16.829 26.86,17C26.941,17.081 27.051,17.127 27.165,17.127C27.279,17.127 27.389,17.081 27.47,17" style="fill:white;fill-rule:nonzero;"/>
        </g>
        <g transform="matrix(1,0,0,1,-12,0)">
            <path d="M26.5,17.7C26.662,17.534 26.662,17.266 26.5,17.1C26.419,17.019 26.309,16.973 26.195,16.973C26.081,16.973 25.971,17.019 25.89,17.1C25.809,17.179 25.764,17.287 25.764,17.4C25.764,17.513 25.809,17.621 25.89,17.7C25.968,17.787 26.079,17.836 26.195,17.836C26.311,17.836 26.422,17.787 26.5,17.7" style="fill:white;fill-rule:nonzero;"/>
        </g>
        <g transform="matrix(1,0,0,1,-12,0)">
            <path d="M23.76,17.11L24.11,17.87L24.54,17.34L24.59,17.34C24.59,17.59 24.65,18.03 24.65,18.27C24.65,18.273 24.65,18.277 24.65,18.28C24.65,18.578 24.892,18.825 25.19,18.83C25.471,18.803 25.687,18.564 25.687,18.283C25.687,18.102 25.599,17.933 25.45,17.83C25.228,17.664 25.024,17.477 24.84,17.27C24.846,17.247 24.846,17.223 24.84,17.2L25.57,17.26L25.28,16.49L24.74,16.96L24.74,16.17L23.98,16.45L24.49,17.05L24.49,17.11L23.76,17.11Z" style="fill:white;fill-rule:nonzero;"/>
        </g>
        <g transform="matrix(1,0,0,1,-12,0)">
            <path d="M28.73,18.45C28.873,18.602 28.967,18.794 29,19C28.824,18.899 28.673,18.759 28.56,18.59L28.64,19.59C28.726,19.437 28.85,19.31 29,19.22C29,19.88 28.71,20.15 28.49,20.22C28.458,20.228 28.424,20.232 28.391,20.232C28.188,20.232 28.012,20.088 27.97,19.89C27.92,19.59 28.17,19.42 28.42,19.67C28.47,19.08 27.99,19.08 27.78,19.34C27.87,19.198 27.918,19.032 27.918,18.864C27.918,18.521 27.72,18.207 27.41,18.06C27.294,18.219 27.232,18.411 27.232,18.607C27.232,18.911 27.381,19.196 27.63,19.37C27.24,19.17 26.88,19.51 27.24,19.95C27.31,19.57 27.64,19.65 27.72,19.95C27.8,20.25 27.53,20.55 27.11,20.69C26.49,20.87 26.29,20.47 26.11,20.14C26.388,20.052 26.692,20.117 26.91,20.31L26.62,19.31C26.539,19.627 26.307,19.886 26,20C26.021,19.706 26.085,19.416 26.19,19.14L25,19.58C25.269,19.703 25.518,19.864 25.74,20.06C25.474,20.183 25.166,20.183 24.9,20.06L25.37,20.97C25.46,20.56 25.67,20.31 25.83,20.29C25.95,20.63 26.09,21.05 25.52,21.29C25.12,21.5 24.7,21.44 24.57,21.2C24.44,20.96 24.57,20.63 24.91,20.85C24.85,20.28 24.36,20.29 24.22,20.72C24.231,20.663 24.236,20.604 24.236,20.546C24.236,20.091 23.907,19.699 23.46,19.62C23.422,19.72 23.403,19.826 23.403,19.933C23.403,20.345 23.689,20.706 24.09,20.8C23.77,20.75 23.41,21.09 23.87,21.49C23.87,21.12 24.17,21.07 24.33,21.32C24.379,21.39 24.405,21.474 24.405,21.559C24.405,21.707 24.327,21.844 24.2,21.92C24.01,22.04 23.63,22.03 23.2,21.58C23.363,21.531 23.537,21.531 23.7,21.58L23.07,20.8C23.121,20.997 23.121,21.203 23.07,21.4C22.935,21.231 22.851,21.026 22.83,20.81L22.35,21.24C22.991,21.66 23.542,22.204 23.97,22.84C24.814,22.343 25.693,21.909 26.6,21.54C27.506,21.168 28.439,20.864 29.39,20.63C29.225,19.882 29.225,19.108 29.39,18.36L28.73,18.45Z" style="fill:white;fill-rule:nonzero;"/>
        </g>
        <g transform="matrix(1,0,0,1,-12,0)">
            <path d="M30.09,24.14C29.49,24.61 28.69,24.14 28.33,23.56C29.166,23.246 29.978,22.872 30.76,22.44C30.16,23.36 30.57,23.76 30.09,24.14M30,30.37C29.873,30.416 29.739,30.44 29.603,30.44C29.076,30.44 28.612,30.081 28.48,29.57C28.33,29.1 28.2,28.72 28.38,28.57C28.72,28.23 28.82,27.98 28.62,27.57C28.42,27.16 27.89,27.32 27.34,27.45C27.59,27 27.62,26.67 27.27,26.71C26.92,26.75 26.85,27.42 26.62,27.35C26.39,27.28 26.52,26.88 26.52,26.68C26.52,26.48 26.71,26.3 26.99,26.17L29.23,25.32C29.52,25.22 29.72,25.17 29.92,25.32C30.12,25.47 30.42,25.66 30.31,25.87C30.2,26.08 29.73,25.62 29.41,25.87C29.09,26.12 29.41,26.31 29.87,26.45C29.38,26.73 28.87,26.93 29.04,27.45C29.21,27.97 29.43,27.99 29.9,28C30.15,28 30.33,28.37 30.54,28.8C30.637,28.967 30.688,29.157 30.688,29.35C30.688,29.798 30.415,30.202 30,30.37M25.73,25.86C25.14,25.91 25.15,25.34 24.09,25.08C24.954,24.865 25.799,24.584 26.62,24.24C26.78,24.93 26.5,25.79 25.73,25.86M38.16,45.79C38.33,45.33 37.48,44.79 37.38,44.15C37.395,43.365 37.125,42.601 36.62,42C35.88,41.13 33.3,38.38 32.53,37.51C32.938,37.417 33.366,37.542 33.66,37.84C33.93,38.09 34.49,38.62 35,39.12C35.626,37.501 36.552,36.015 37.73,34.74C37.88,34.56 38.03,34.39 38.19,34.23C37.664,34.331 37.153,34.499 36.67,34.73C36.67,33.98 36.67,33.37 36.18,32.89C36.38,31.89 36.18,30.56 33.84,28.99C35.05,29.28 35.77,30.37 36.7,29.53C35.86,29.53 35.84,27.69 32.85,26.19C33.99,26.19 34.85,28.01 36.21,26.97C34.96,26.82 34.54,24.6 32.29,23.91C33.07,23.99 33.88,24.38 34.55,23.47C33.77,23.65 33.31,22.94 32.47,22.87C32.764,22.124 32.728,21.287 32.37,20.57C31.783,20.591 31.217,20.794 30.75,21.15C30.68,20.61 30.12,20.58 29.62,20.62C29.62,20.85 29.76,21.19 29.51,21.23C28.565,21.447 27.637,21.728 26.73,22.07C25.832,22.442 24.974,22.904 24.17,23.45C23.96,23.59 23.78,23.25 23.65,23.09C23.29,23.4 22.93,23.8 23.19,24.21C22.56,24.242 21.954,24.462 21.45,24.84C21.537,25.619 22.074,26.278 22.82,26.52C21.43,27.9 22.69,29.18 21.47,30.39C23.19,30.45 22.89,28.05 23.76,27.72C23.67,29.41 22.76,29.72 22.76,31.52C22.76,32.52 23.34,33.52 22.82,34.19C24.26,33.8 23.88,30.61 24.82,29.65C24.945,30.19 24.903,30.755 24.7,31.27C24.19,32.76 24.75,34.79 23.97,35.45C25.44,35.31 25.61,32.95 26.83,32.08C25.78,34.21 24.72,38.73 23.17,41C20.66,44.38 19.17,48.51 16.88,48.51C16.815,48.518 16.749,48.521 16.683,48.521C15.75,48.521 14.983,47.754 14.983,46.821C14.983,46.741 14.989,46.66 15,46.58C15,42.73 21.59,40.09 21.59,35.99C21.591,35.96 21.592,35.93 21.592,35.9C21.592,34.574 20.506,33.48 19.18,33.47C18.439,33.521 17.735,33.817 17.18,34.31C16.937,34.203 16.676,34.142 16.41,34.13C14.08,34.13 14.7,38.33 12.66,38.29C13.47,38.73 14.86,37.85 15.66,36.68C15.31,39.4 11.4,38.68 11.66,41.94C12.21,39.39 18.44,39.76 18.44,35.94C18.426,35.515 18.233,35.116 17.91,34.84C18.297,34.579 18.753,34.436 19.22,34.43C19.231,34.43 19.242,34.43 19.253,34.43C20.06,34.43 20.723,35.093 20.723,35.9C20.723,35.933 20.722,35.967 20.72,36C20.72,39.44 14.17,42.33 14.17,46.55C14.154,47.183 14.344,47.804 14.71,48.32C14.249,48.543 13.689,48.408 13.38,48C13.38,49.08 14.89,49.77 15.87,49.22C16.089,49.298 16.318,49.345 16.55,49.36C16.2,50.027 15.481,50.422 14.73,50.36C16.34,51.62 19.14,49.96 18.98,48.53C20.26,47.53 21.07,45.74 21.98,44.58L21.83,45.38C20.762,47.047 20.06,48.922 19.77,50.88C19.57,52.76 18.61,54.46 17.29,54.46C17,54.46 16.52,54.08 16.29,54.27C15.88,54.62 16.29,55 16.29,55.35C16.29,55.88 15.29,56.42 15.29,58.07C15.29,58.82 15.73,59.71 15.56,60.2C16.182,59.761 16.617,59.104 16.78,58.36C17.23,60.55 15.84,60.46 16.84,62.36C16.902,61.968 17.243,61.676 17.64,61.676C17.765,61.676 17.888,61.705 18,61.76C18.39,62.03 18.2,62.22 17.92,62.51C17.64,62.8 17.36,64.25 18.68,64.16C18.43,64 18.42,63.62 19.07,63.48C19.99,63.3 20.25,63.72 21.22,63.72C21.83,63.72 21.99,62.93 22.47,62.93C22.95,62.93 22.94,63.3 22.78,63.57C23.55,63.37 23.69,62.96 23.69,62.51C23.69,62.06 23.33,61.82 23.6,61.65C23.87,61.48 24.76,61.65 24.41,62.39C24.825,62.323 25.133,61.961 25.133,61.541C25.133,61.49 25.129,61.44 25.12,61.39C25.12,60.83 24.48,60.5 23.87,60.6C23.77,60.25 23.25,60.07 22.78,60.07C21.7,60.07 21.87,60.92 21.13,60.92C19.95,60.92 18.8,59.38 18.8,56.8C18.8,55.41 20.29,55.06 21.35,54.6C22.998,53.876 24.392,52.674 25.35,51.15C26.12,49.626 26.396,47.899 26.14,46.21C27.237,46.792 27.889,47.972 27.8,49.21C27.873,49.987 27.436,50.729 26.72,51.04C26.32,51.23 26.19,51.15 26.15,51.39C26.103,51.627 26.241,51.864 26.47,51.94C27,52.22 26.9,52.74 27.04,53.29C27.311,54.117 27.828,54.843 28.52,55.37C28.594,54.833 28.594,54.287 28.52,53.75C29.66,54.32 28.74,56.61 30.96,56.61C30.55,56.37 30.66,55.77 30.9,55.69C31.14,55.61 31.43,55.84 31.9,56.43C32.37,57.02 32.21,56.99 33.27,56.99C34.33,56.99 33.84,56.62 34.39,56.62C34.94,56.62 34.91,57.26 34.61,57.74C35.182,57.635 35.602,57.132 35.602,56.55C35.602,56.359 35.557,56.17 35.47,56C35.616,55.906 35.785,55.856 35.959,55.856C36.405,55.856 36.788,56.188 36.85,56.63C37.051,56.424 37.164,56.148 37.164,55.86C37.164,55.312 36.754,54.843 36.21,54.77C36.201,54.437 35.942,54.16 35.61,54.13C35.277,54.112 34.943,54.112 34.61,54.13C34.22,54.13 34.01,54.71 33.56,54.71C32.17,54.71 29.42,52.19 29.42,51.1C29.42,50.01 32,49.35 32,47.66C32,45.44 29.83,44.66 28,43.27C29.054,42.504 30.443,42.363 31.63,42.9C31.75,42.28 32.15,42.43 32.29,41.37C32.68,42.3 32.29,43.11 32.68,43.5C32.98,43.05 33.77,43.12 33.68,41.97C33.92,42.68 33.37,43.79 33.92,44.27C34.02,43.68 34.38,43.57 34.6,43.57C34.82,43.57 35.02,43.73 35.02,44.08C35.02,44.96 33.93,44.55 33.93,45.55C33.93,45.97 34.46,46.11 34.46,46.38C34.421,46.671 34.169,46.891 33.875,46.891C33.72,46.891 33.57,46.829 33.46,46.72C33.616,47.141 34.011,47.43 34.46,47.45C34.996,47.407 35.463,47.061 35.66,46.56C35.9,47.19 35.71,47.9 35.26,47.99C35.74,48.23 36.88,47.99 36.75,46.54C37.4,46.65 37.75,47.09 37.35,47.86C37.88,47.73 38.35,47.48 38.35,46.86C38.35,46.24 37.88,46.3 38.09,45.74" style="fill:white;fill-rule:nonzero;"/>
        </g>
        <g transform="matrix(1,0,0,1,-12,0)">
            <path d="M80.66,56.38C80.66,55.623 81.283,55 82.04,55C82.797,55 83.42,55.623 83.42,56.38C83.42,57.133 82.803,57.755 82.05,57.76C82.047,57.76 82.043,57.76 82.04,57.76C81.283,57.76 80.66,57.137 80.66,56.38C80.66,56.38 80.66,56.38 80.66,56.38M80.19,56.38C80.19,57.395 81.025,58.23 82.04,58.23C83.055,58.23 83.89,57.395 83.89,56.38C83.89,55.369 83.061,54.535 82.05,54.53C81.033,54.53 80.195,55.363 80.19,56.38" style="fill:white;fill-rule:nonzero;"/>
        </g>
        <g transform="matrix(1,0,0,1,-12,0)">
            <path d="M74.11,59.74C73.58,59.65 73.21,59.25 73.28,58.87C73.311,58.708 73.404,58.564 73.54,58.47C73.787,58.325 74.079,58.276 74.36,58.33C74.775,58.388 75.112,58.7 75.2,59.11C75.205,59.143 75.205,59.177 75.2,59.21C75.037,59.641 74.561,59.875 74.12,59.74M73.28,58.09C72.97,58.268 72.779,58.599 72.779,58.957C72.779,59.24 72.899,59.51 73.11,59.7C73.351,59.968 73.675,60.147 74.03,60.21C74.371,60.264 74.72,60.211 75.03,60.06C75.336,59.91 75.555,59.625 75.62,59.29C75.666,58.57 75.128,57.933 74.41,57.86C74.002,57.778 73.578,57.861 73.23,58.09" style="fill:white;fill-rule:nonzero;"/>
        </g>
        <g transform="matrix(1,0,0,1,-12,0)">
            <path d="M63,33.17C63.016,32.887 63.16,32.626 63.39,32.46C63.587,32.301 63.837,32.222 64.09,32.24C64.229,32.247 64.358,32.317 64.44,32.43C64.522,32.538 64.555,32.676 64.53,32.81C64.492,33.064 64.351,33.292 64.14,33.44C63.85,33.677 63.43,33.677 63.14,33.44C63.08,33.351 63.049,33.247 63.05,33.14M63.15,32.05C62.591,32.411 62.42,33.164 62.77,33.73C63.234,34.204 63.999,34.226 64.49,33.78C64.793,33.553 64.994,33.215 65.05,32.84C65.091,32.581 65.022,32.316 64.86,32.11C64.707,31.898 64.47,31.763 64.21,31.74C63.83,31.701 63.449,31.812 63.15,32.05" style="fill:white;fill-rule:nonzero;"/>
        </g>
        <g transform="matrix(1,0,0,1,-12,0)">
            <path d="M71.81,57.11C71.653,57.108 71.503,57.039 71.4,56.92C71.203,56.705 71.099,56.421 71.11,56.13C71.108,55.841 71.224,55.563 71.43,55.36C71.537,55.24 71.69,55.171 71.85,55.17C72.24,55.17 72.56,55.62 72.54,56.17C72.544,56.459 72.437,56.739 72.24,56.95C72.123,57.059 71.97,57.12 71.81,57.12M71.09,55C70.806,55.3 70.645,55.697 70.64,56.11C70.63,56.517 70.781,56.913 71.06,57.21C71.247,57.423 71.516,57.547 71.8,57.55C72.085,57.553 72.359,57.441 72.56,57.24C72.838,56.953 72.996,56.57 73,56.17C73.007,55.812 72.898,55.461 72.69,55.17C72.511,54.864 72.182,54.676 71.827,54.676C71.547,54.676 71.279,54.793 71.09,55" style="fill:white;fill-rule:nonzero;"/>
        </g>
        <g transform="matrix(1,0,0,1,-12,0)">
            <path d="M62.39,41.84C61.953,41.693 61.705,41.223 61.83,40.78C61.901,40.637 62.028,40.528 62.18,40.48C62.46,40.398 62.761,40.427 63.02,40.56C63.282,40.676 63.487,40.892 63.59,41.16C63.62,41.23 63.636,41.305 63.636,41.382C63.636,41.631 63.469,41.851 63.23,41.92C62.951,42.007 62.648,41.978 62.39,41.84M62,40C61.73,40.09 61.506,40.285 61.38,40.54C61.138,41.22 61.486,41.98 62.16,42.24C62.531,42.431 62.965,42.464 63.36,42.33C63.781,42.203 64.072,41.812 64.072,41.372C64.072,41.245 64.048,41.118 64,41C63.851,40.608 63.552,40.292 63.17,40.12C62.809,39.933 62.391,39.89 62,40" style="fill:white;fill-rule:nonzero;"/>
        </g>
        <g transform="matrix(1,0,0,1,-12,0)">
            <path d="M75.46,48.48C75.223,48.877 74.714,49.026 74.3,48.82C74.166,48.646 74.094,48.432 74.094,48.212C74.094,47.663 74.545,47.212 75.094,47.212C75.198,47.212 75.301,47.228 75.4,47.26C75.738,47.585 75.765,48.124 75.46,48.48M73.28,51.92C73.046,52.326 72.529,52.48 72.11,52.27C71.724,52.122 71.468,51.75 71.468,51.336C71.468,50.788 71.919,50.336 72.468,50.336C73.017,50.336 73.468,50.788 73.468,51.336C73.468,51.546 73.402,51.75 73.28,51.92M65.78,33C66.04,32.2 66.53,30.6 66.53,30.6L67.37,30.93C67.071,31.075 66.798,31.268 66.56,31.5C66.807,31.602 67.088,31.584 67.32,31.45L66.99,32.29C66.91,32.16 66.68,31.85 66.44,31.8C66.405,31.896 66.387,31.997 66.387,32.099C66.387,32.479 66.637,32.818 67,32.93C67.52,33.19 67.85,33.23 68,33C68.15,32.77 67.82,32.3 67.4,32.48C67.4,32.04 67.6,31.81 67.89,31.81C68.144,31.841 68.344,32.046 68.37,32.3C68.288,31.632 68.719,31 69.37,30.83C69.608,31.429 69.41,32.119 68.89,32.5C69.121,32.362 69.42,32.399 69.61,32.59C69.77,32.84 69.71,33.17 69.32,33.38C69.304,33.162 69.12,32.99 68.901,32.99C68.76,32.99 68.628,33.062 68.55,33.18C68.39,33.48 68.63,33.75 69.1,34.02C69.244,34.116 69.414,34.167 69.588,34.167C69.925,34.167 70.233,33.974 70.38,33.67C70.107,33.607 69.821,33.662 69.59,33.82L70.15,32.82C70.195,33.062 70.322,33.281 70.51,33.44C70.638,33.119 70.638,32.761 70.51,32.44L71.72,33.14C71.373,33.199 71.064,33.393 70.86,33.68C71.09,33.756 71.34,33.756 71.57,33.68L70.93,34.68C70.959,34.404 70.872,34.129 70.69,33.92C70.601,34.059 70.553,34.221 70.553,34.386C70.553,34.699 70.725,34.989 71,35.14C71.47,35.42 71.83,35.48 72,35.2C72.031,35.14 72.048,35.073 72.048,35.006C72.048,34.775 71.858,34.586 71.628,34.586C71.562,34.586 71.498,34.601 71.44,34.63C71.44,34.19 71.68,33.97 71.97,33.99C72.26,34.01 72.38,34.26 72.42,34.56C72.486,33.914 72.988,33.393 73.63,33.3C73.778,33.948 73.434,34.615 72.82,34.87C73.055,34.762 73.335,34.833 73.49,35.04C73.63,35.29 73.56,35.62 73.15,35.81C73.15,35.807 73.15,35.803 73.15,35.8C73.15,35.569 72.961,35.38 72.73,35.38C72.601,35.38 72.48,35.439 72.4,35.54C72.26,35.78 72.47,36.05 72.96,36.36C73.118,36.505 73.326,36.585 73.54,36.585C73.784,36.585 74.017,36.481 74.18,36.3C73.983,36.147 73.739,36.066 73.49,36.07L74.05,35.36C74.048,35.626 74.166,35.88 74.37,36.05C74.465,35.726 74.499,35.387 74.47,35.05L75.18,35.61L73.47,37.45L65.78,33ZM74.85,43.3C74.857,43.143 74.921,42.994 75.03,42.88C75.146,42.772 75.302,42.718 75.46,42.73C75.754,42.743 76.029,42.877 76.22,43.1C76.424,43.305 76.539,43.581 76.54,43.87C76.545,44.028 76.483,44.18 76.37,44.29C76.244,44.388 76.089,44.441 75.93,44.44C75.643,44.415 75.375,44.283 75.18,44.07C74.979,43.859 74.862,43.581 74.85,43.29M78.18,58.56C78.246,58.274 78.422,58.026 78.67,57.87C78.91,57.707 79.204,57.642 79.49,57.69C79.648,57.719 79.788,57.809 79.88,57.94C79.959,58.072 79.984,58.23 79.95,58.38C79.884,58.663 79.707,58.908 79.46,59.06C79.112,59.367 78.575,59.34 78.26,59C78.174,58.867 78.145,58.705 78.18,58.55M62.38,35.55C62.366,35.795 62.263,36.026 62.09,36.2C61.998,36.293 61.871,36.344 61.74,36.34C61.43,36.34 61.19,35.97 61.19,35.55L61.19,35.49C61.19,35.241 61.291,35.003 61.47,34.83C61.569,34.743 61.698,34.696 61.83,34.7C61.961,34.711 62.083,34.772 62.17,34.87C62.327,35.06 62.403,35.305 62.38,35.55M67.27,25.55C67.52,25.06 67.27,24.3 68.17,24.3C68.62,24.3 69.01,24.75 69.55,24.92C68.753,24.959 67.974,25.174 67.27,25.55M81.5,38.13C82.11,39.78 83.31,40.38 84.22,39.95C82.22,39.71 83.83,36.22 81.22,36.22C81.08,36.204 80.94,36.204 80.8,36.22C80.356,35.751 79.724,35.505 79.08,35.55C77.376,35.686 76.054,37.141 76.08,38.85C76.08,43.63 81.63,44.05 81.63,48.28C81.631,48.304 81.631,48.328 81.631,48.351C81.631,49.41 80.76,50.281 79.701,50.281C79.678,50.281 79.654,50.281 79.63,50.28C78.69,50.28 77.94,49.28 77.15,47.59C76.574,46.533 75.904,45.529 75.15,44.59C75.388,44.767 75.674,44.868 75.97,44.88C76.255,44.901 76.535,44.799 76.74,44.6C76.946,44.4 77.064,44.127 77.07,43.84C77.063,43.439 76.902,43.055 76.62,42.77C76.34,42.459 75.948,42.272 75.53,42.25C75.243,42.235 74.962,42.336 74.75,42.53C74.553,42.731 74.439,42.999 74.43,43.28C74.429,43.448 74.459,43.614 74.52,43.77C73.33,42.21 72.21,40.68 72.21,39.84C72.34,39.006 72.745,38.238 73.36,37.66L73.58,37.79L73.74,37.6L75.39,35.82L75.39,35.75L75.62,35.51L75.02,35.03C75.191,34.65 75.325,34.255 75.42,33.85C75.61,34.62 76,35.11 76.55,34.96C76.19,34.16 76.91,33.1 76.44,31.16C76.89,31.91 77.55,32.3 78.01,32.16C76.79,31.07 78.38,29.55 76.78,27.16C77.148,27.329 77.584,27.257 77.88,26.98C76.42,26.77 77.08,24.9 74.52,24.24C75.16,24.13 75.52,23.75 75.44,23.42C74.76,23.9 74.16,22.51 71.94,22.54C71.7,21.601 71.049,20.818 70.17,20.41C70.306,21.023 70.247,21.663 70,22.24L62.75,15.13C62.54,14.93 62.42,14.88 62.36,14.95C62.3,15.02 62.36,15.16 62.45,15.31L68.66,23.1L67.26,23.64C66.925,23.765 66.706,24.093 66.72,24.45C65.76,24.915 64.863,25.5 64.05,26.19C63.66,26.54 63.36,26.62 63.69,27.4C63.83,27.7 63.42,28.4 64.32,27.9C64.91,27.54 66.26,26.81 66.46,27.27C66.56,27.52 65.89,27.83 65.46,28C65.03,28.17 64.46,28.52 64.59,28.7C64.72,28.88 65.02,28.7 65.04,28.87C65.044,29.071 65.2,29.24 65.4,29.26C65.57,29.26 65.81,28.89 65.96,29.01C66.11,29.13 65.89,30.01 65.74,30.2C66.377,30.093 66.865,29.564 66.92,28.92C66.92,28.4 67.07,28.27 67.19,28.2C67.31,28.13 67.42,28.76 67.27,29.14C67.65,29.06 68.03,28.57 67.98,27.67C68.122,27.53 68.304,27.436 68.5,27.4C68.74,27.4 69.21,28.06 69.88,28.06C70.797,28.072 71.617,27.469 71.88,26.59C71.944,26.246 71.88,25.89 71.7,25.59C72.082,25.92 72.295,26.406 72.28,26.91C72.28,28.66 69.2,29.49 67.93,30.69L67.8,30.82L66.34,30.26L66.25,30.58C66.25,30.58 66.25,30.66 66.17,30.86C66.02,31.35 65.7,32.38 65.5,32.98L65.43,33.21L65.55,33.29C64.665,34.357 64.072,35.635 63.83,37C63.48,36.65 63.16,36.36 62.83,36C62.83,35.87 62.89,35.74 62.91,35.6C62.933,35.235 62.81,34.876 62.57,34.6C62.402,34.406 62.165,34.284 61.91,34.26C61.649,34.25 61.393,34.344 61.2,34.52L61.07,34.66C61.022,34.617 60.972,34.577 60.92,34.54C60.412,34.179 59.934,33.778 59.49,33.34C59.339,33.156 59.107,33.059 58.87,33.08L58.22,33.08C58.01,33.08 57.88,33.24 57.64,33.45C57.4,33.66 57.19,33.82 56.81,34.11C57,34.29 57.17,34.47 57.34,34.66L57.61,34.99L57.87,34.79C58.025,34.682 58.212,34.629 58.4,34.64C58.665,34.671 58.901,34.823 59.04,35.05C59.749,36.024 60.506,36.962 61.31,37.86C61.203,37.899 61.1,37.946 61,38C60.42,38.136 59.822,38.173 59.23,38.11C58.82,38.11 58.74,37.97 58.45,38.41C58.34,38.58 58.2,38.78 58.07,38.95C57.94,39.12 57.82,39.31 58.07,39.81C58.5,40.53 59.56,42.43 59.92,43.29C60.15,43.928 60.689,44.407 61.35,44.56C62.057,44.847 62.729,45.217 63.35,45.66L63.35,45C63.019,44.77 62.655,44.591 62.27,44.47C62.03,44.38 61.96,44.27 62.27,44.27C62.85,44.377 63.414,44.555 63.95,44.8C63.692,44.121 63.289,43.507 62.77,43C62.393,42.842 61.967,42.842 61.59,43C61.591,43.01 61.592,43.02 61.592,43.03C61.592,43.178 61.47,43.3 61.322,43.3C61.321,43.3 61.321,43.3 61.32,43.3C61.311,43.301 61.302,43.302 61.293,43.302C61.156,43.302 61.043,43.189 61.043,43.052C61.043,43.02 61.049,42.989 61.06,42.96C61.12,42.77 61.41,42.7 61.34,42.34C61.27,41.98 60.83,41.9 60.53,41.87C60.12,41.28 59.64,40.4 59.43,40.05C59.22,39.7 59.34,39.49 59.49,39.37C59.84,39.08 60.58,39.52 62.05,39.62C62.57,39.62 63.21,39.69 63.87,39.71C63.894,41.618 65.259,43.264 67.13,43.64C68.36,43.913 69.392,44.751 69.91,45.9C65.16,45.82 64.41,47.67 64.41,49.42C64.41,51.42 66.08,51.3 66.08,52.78C66.08,54.08 62.08,54.62 60.88,54.78C60.098,54.816 59.354,55.128 58.78,55.66C58.29,56.15 57.78,56.66 56.9,57.51C57.15,57.559 57.405,57.579 57.66,57.57L58.33,56.7C58.53,56.41 58.67,56.17 58.81,56.19C58.95,56.21 58.81,56.44 58.69,56.75L58.13,57.69C60.48,57.84 60.63,56.97 60.63,56.61C60.63,56.25 60.06,56.01 60.39,55.79C60.72,55.57 61.02,55.72 61.29,56.03C61.56,56.34 61.64,56.61 62.29,56.37C62.29,56.37 67.4,54.25 68.05,53.96C68.7,53.67 68.46,53.44 68.11,53.15C67.771,52.784 67.61,52.286 67.67,51.79C67.67,50.24 68.6,49.79 70.27,49.79C70.251,50.04 70.251,50.29 70.27,50.54C70.27,52.96 73.92,55.31 74.9,55.31C75.34,55.31 75.9,54.99 75.98,56.44C76.086,57.457 76.086,58.483 75.98,59.5C75.935,60.337 75.436,61.087 74.68,61.45C73.94,61.98 73.24,63.61 72.93,63.96C73.26,64.17 73.61,64.2 73.93,63.4C74.046,62.903 74.315,62.455 74.7,62.12C74.41,62.84 74.2,63.91 74.06,64.23C75,64.39 76.51,63.54 76.51,62.89C76.51,62.24 76,62.34 76,61.9C76.041,61.65 76.268,61.471 76.52,61.49C76.81,61.489 77.076,61.657 77.2,61.92C77.62,61.7 77.88,61.3 77.87,60.33L77.87,59.17C77.896,59.222 77.926,59.272 77.96,59.32C78.151,59.599 78.462,59.774 78.8,59.79C79.154,59.814 79.506,59.719 79.8,59.52C80.152,59.288 80.403,58.93 80.5,58.52C80.51,58.44 80.51,58.36 80.5,58.28C80.502,58.077 80.443,57.878 80.33,57.71C80.173,57.475 79.928,57.312 79.65,57.26C79.239,57.185 78.815,57.275 78.47,57.51C78.143,57.716 77.904,58.037 77.8,58.41C77.72,57.09 77.62,55.85 77.66,55.35C77.71,54.62 77.74,54.29 77.49,54.18C77.24,54.07 76.97,54.48 76.62,54.48C75.812,54.129 75.261,53.358 75.19,52.48C75.19,51.48 76.31,50.09 76.26,48.66C76.26,48.22 76.52,47.98 76.7,48.39C76.947,49 77.284,49.57 77.7,50.08C77.4,51.88 79.38,53.62 81,52.32C80.2,52.44 79.65,51.73 79.29,51.01C79.433,51.025 79.577,51.025 79.72,51.01L79.97,51.01C80.284,51.271 80.679,51.413 81.087,51.413C81.955,51.413 82.698,50.769 82.82,49.91C82.449,50.306 81.922,50.519 81.38,50.49C82.053,49.908 82.422,49.048 82.38,48.16C82.38,43.61 76.85,43.07 76.85,38.92C76.853,37.627 77.844,36.532 79.13,36.4C79.438,36.394 79.74,36.489 79.99,36.67C79.603,37.104 79.414,37.681 79.47,38.26C79.62,41.55 85,41.39 85,43C85.61,40.62 81.61,41.35 81.47,38.16" style="fill:white;fill-rule:nonzero;"/>
        </g>
    </g>
</svg>
